<svg width="215" height="435" viewBox="0 0 215 435" version="1.1" xmlns="http://www.w3.org/2000/svg" xmlns:xlink="http://www.w3.org/1999/xlink">
<title>CAPTAIN</title>
<desc>Created using Figma</desc>
<g id="Canvas" transform="translate(-1027 -7192)">
<g id="CAPTAIN">
<g id="CAPTAIN">
<g id="Fill 1">
<use xlink:href="#path0_fill" transform="translate(1130.38 7203.19)" fill="#483737"/>
</g>
<g id="Fill 2">
<use xlink:href="#path1_fill" transform="translate(1183.57 7213.64)" fill="#483737"/>
</g>
<g id="Fill 3">
<use xlink:href="#path2_fill" transform="translate(1044.23 7216.62)" fill="#483737"/>
</g>
<g id="Fill 4">
<use xlink:href="#path3_fill" transform="translate(1185.82 7198.72)" fill="#483737"/>
</g>
<g id="Fill 5">
<use xlink:href="#path4_fill" transform="translate(1044.98 7196.48)" fill="#483737"/>
</g>
<g id="Fill 6">
<use xlink:href="#path5_fill" transform="translate(1054.72 7213.64)" fill="#99562A"/>
</g>
<g id="Fill 7">
<use xlink:href="#path6_fill" transform="translate(1184.32 7196.48)" fill="#EB3900"/>
</g>
<g id="Fill 8">
<use xlink:href="#path7_fill" transform="translate(1059.96 7196.48)" fill="#D28B5B"/>
</g>
<g id="Fill 9">
<use xlink:href="#path8_fill" transform="translate(1054.72 7196.48)" fill="#F4E3D7"/>
</g>
<g id="Fill 10">
<use xlink:href="#path9_fill" transform="translate(1184.32 7209.91)" fill="#99562A"/>
</g>
<g id="Fill 11">
<use xlink:href="#path10_fill" transform="translate(1054.72 7192.75)" fill="#EB3900"/>
</g>
<g id="Fill 12">
<use xlink:href="#path11_fill" transform="translate(1054.72 7192.75)" fill="#C87237"/>
</g>
<g id="Fill 13">
<use xlink:href="#path12_fill" transform="translate(1054.72 7192.75)" fill="#F4E3D7"/>
</g>
<g id="Group 134">
<g id="Fill 14">
<use xlink:href="#path13_fill" transform="translate(1181.37 7195.75)" fill="#483737"/>
</g>
<g id="Fill 16">
<use xlink:href="#path14_fill" transform="translate(1180.44 7195.91)" fill="#483737"/>
</g>
<g id="Fill 18">
<use xlink:href="#path15_fill" transform="translate(1179.71 7208.44)" fill="#483737"/>
</g>
<g id="Fill 20">
<use xlink:href="#path16_fill" transform="translate(1180.81 7208.8)" fill="#483737"/>
</g>
<g id="Fill 22">
<use xlink:href="#path17_fill" transform="translate(1058.54 7212.39)" fill="#483737"/>
</g>
<g id="Fill 24">
<use xlink:href="#path18_fill" transform="translate(1059.53 7212.08)" fill="#483737"/>
</g>
<g id="Fill 26">
<use xlink:href="#path19_fill" transform="translate(1054.83 7192.21)" fill="#483737"/>
</g>
<g id="Fill 28">
<use xlink:href="#path20_fill" transform="translate(1056.19 7192.37)" fill="#483737"/>
</g>
<g id="Fill 30">
<use xlink:href="#path21_fill" transform="translate(1138.15 7385.24)" fill="#1A1A1A"/>
</g>
<g id="Fill 32">
<use xlink:href="#path22_fill" transform="translate(1143.11 7389.85)" fill="#1A1A1A"/>
</g>
<g id="Fill 34">
<use xlink:href="#path23_fill" transform="translate(1144.3 7395.3)" fill="#1A1A1A"/>
</g>
<g id="Fill 36">
<use xlink:href="#path24_fill" transform="translate(1150.86 7386.95)" fill="#1A1A1A"/>
</g>
<g id="Fill 38">
<use xlink:href="#path25_fill" transform="translate(1152.29 7392.91)" fill="#1A1A1A"/>
</g>
<g id="Fill 40">
<use xlink:href="#path26_fill" transform="translate(1032.05 7485.12)" fill="#FFCCAA"/>
</g>
<g id="Fill 42">
<use xlink:href="#path27_fill" transform="translate(1215.9 7415.62)" fill="#FFCCAA"/>
</g>
<g id="Fill 44">
<use xlink:href="#path28_fill" transform="translate(1104.83 7383.38)" fill="#FFCCAA"/>
</g>
<g id="Fill 46">
<use xlink:href="#path29_fill" transform="translate(1133.68 7395.06)" fill="#FFFFFF"/>
</g>
<g id="Fill 48">
<use xlink:href="#path30_fill" transform="translate(1135.78 7395.17)"/>
</g>
<g id="Fill 50">
<use xlink:href="#path31_fill" transform="translate(1133.68 7395.06)" fill="#FABA8F"/>
</g>
<g id="Fill 52">
<use xlink:href="#path32_fill" transform="translate(1135.23 7390.8)"/>
</g>
<g id="Fill 54">
<use xlink:href="#path33_fill" transform="translate(1140.22 7398.95)" fill="#FFFFFF"/>
</g>
<g id="Fill 56">
<use xlink:href="#path34_fill" transform="translate(1136.83 7397.2)" fill="#FFFFFF"/>
</g>
<g id="Fill 58">
<use xlink:href="#path35_fill" transform="translate(1113.69 7393.3)" fill="#FFFFFF"/>
</g>
<g id="Fill 60">
<use xlink:href="#path36_fill" transform="translate(1115.79 7393.4)"/>
</g>
<g id="Fill 62">
<use xlink:href="#path37_fill" transform="translate(1113.69 7393.3)" fill="#FABA8F"/>
</g>
<g id="Fill 64">
<use xlink:href="#path38_fill" transform="translate(1115.4 7388.5)"/>
</g>
<g id="Fill 66">
<use xlink:href="#path39_fill" transform="translate(1116.51 7396.75)" fill="#FFFFFF"/>
</g>
<g id="Fill 68">
<use xlink:href="#path40_fill" transform="translate(1120.6 7395.75)" fill="#FFFFFF"/>
</g>
<g id="Fill 70">
<use xlink:href="#path41_fill" transform="translate(1124.8 7397.39)" fill="#FFBC8F"/>
</g>
<g id="Fill 72">
<use xlink:href="#path42_fill" transform="translate(1126.92 7414.73)" fill="#D35F5F"/>
</g>
<g id="Fill 74">
<use xlink:href="#path43_fill" transform="translate(1119.51 7409.98)"/>
</g>
<g id="Fill 76">
<use xlink:href="#path44_fill" transform="translate(1128.91 7416.3)" fill="#23DAF8"/>
</g>
<g id="Fill 78">
<use xlink:href="#path45_fill" transform="translate(1128.91 7416.35)" fill="#FFB500"/>
</g>
<g id="Fill 80">
<use xlink:href="#path46_fill" transform="translate(1103.6 7412.57)" fill="#23DAF8"/>
</g>
<g id="Fill 82">
<use xlink:href="#path47_fill" transform="translate(1103.6 7412.57)" fill="#FFB500"/>
</g>
<g id="Fill 84">
<use xlink:href="#path48_fill" transform="translate(1090.14 7421.3)" fill="#23DAF8"/>
</g>
<g id="Fill 86">
<use xlink:href="#path49_fill" transform="translate(1153.3 7417.02)" fill="#23DAF8"/>
</g>
<g id="Fill 88">
<use xlink:href="#path50_fill" transform="translate(1038.86 7421.29)" fill="#23DAF8"/>
</g>
<g id="Fill 90">
<use xlink:href="#path51_fill" transform="translate(1090.14 7492.49)" fill="#FFB500"/>
</g>
<g id="Fill 92">
<use xlink:href="#path52_fill" transform="translate(1060.39 7492.49)" fill="#FFCC00"/>
</g>
<g id="Group 96">
<mask id="mask0_outline" mask-type="alpha">
<g id="Clip 95">
<use xlink:href="#path53_fill" transform="translate(1211.72 7406.21)" fill="#FFFFFF"/>
</g>
</mask>
<g id="Fill 94" mask="url(#mask0_outline)">
<use xlink:href="#path54_fill" transform="translate(1211.72 7406.21)" fill="#FFB500"/>
</g>
</g>
<g id="Fill 97">
<use xlink:href="#path55_fill" transform="translate(1162.84 7319.77)" fill="#BDC3C7"/>
</g>
<g id="Fill 99">
<use xlink:href="#path56_fill" transform="translate(1142.47 7532.08)" fill="#2B3E50"/>
</g>
<g id="Group 103">
<mask id="mask1_outline" mask-type="alpha">
<g id="Clip 102">
<use xlink:href="#path57_fill" transform="translate(1027 7534.15)" fill="#FFFFFF"/>
</g>
</mask>
<g id="Fill 101" mask="url(#mask1_outline)">
<use xlink:href="#path58_fill" transform="translate(1027 7534.15)" fill="#2B3E50"/>
</g>
</g>
<g id="Fill 104">
<use xlink:href="#path59_fill" transform="translate(1104.9 7382.31)" fill="#1A1A1A"/>
</g>
<g id="Fill 106">
<use xlink:href="#path60_fill" transform="translate(1099.2 7385.97)" fill="#1A1A1A"/>
</g>
<g id="Fill 108">
<use xlink:href="#path61_fill" transform="translate(1097.06 7391.13)" fill="#1A1A1A"/>
</g>
<g id="Fill 110">
<use xlink:href="#path62_fill" transform="translate(1096.28 7382.13)" fill="#1A1A1A"/>
</g>
<g id="Fill 112">
<use xlink:href="#path63_fill" transform="translate(1093.83 7387.75)" fill="#1A1A1A"/>
</g>
<g id="Fill 114">
<use xlink:href="#path64_fill" transform="translate(1080.59 7347.92)" fill="#2B3E50"/>
</g>
<g id="Fill 116">
<use xlink:href="#path65_fill" transform="translate(1088.24 7484.26)" fill="#DBE2E3"/>
</g>
<g id="Fill 118">
<use xlink:href="#path66_fill" transform="translate(1124.35 7485.03)" fill="#FFB500"/>
</g>
<g id="Fill 120">
<use xlink:href="#path67_fill" transform="translate(1129.91 7474.27)" fill="#FFCC00"/>
</g>
<g id="Fill 122">
<use xlink:href="#path68_fill" transform="translate(1127.01 7428.43)" fill="#FFCC00"/>
</g>
<g id="Fill 124">
<use xlink:href="#path69_fill" transform="translate(1128.08 7443.11)" fill="#FFCC00"/>
</g>
<g id="Fill 126">
<use xlink:href="#path70_fill" transform="translate(1128.92 7458.75)" fill="#FFCC00"/>
</g>
<g id="Fill 128">
<use xlink:href="#path71_fill" transform="translate(1080.59 7350.95)" fill="#23DAF8"/>
</g>
<g id="Fill 130">
<use xlink:href="#path72_fill" transform="translate(1123.83 7321.19)" fill="#DBE2E3"/>
</g>
<g id="Fill 132">
<use xlink:href="#path73_fill" transform="translate(1126.43 7359.5)" fill="#FFB500"/>
</g>
</g>
</g>
</g>
</g>
<defs>
<path id="path0_fill" fill-rule="evenodd" d="M 0 152.959L 0.74913 152.959L 0.74913 0L 0 0L 0 152.959Z"/>
<path id="path1_fill" fill-rule="evenodd" d="M 0.906089 0L 0 0.16229L 37.2995 205.189L 38.2056 205.027L 0.906089 0Z"/>
<path id="path2_fill" fill-rule="evenodd" d="M 12.5989 0L 0 273.044L 0.885716 273.087L 13.4843 0.0435892L 12.5989 0Z"/>
<path id="path3_fill" fill-rule="evenodd" d="M 0.913963 0L 0 0.0100589L 4.32996 400.678L 5.24393 400.668L 0.913963 0Z"/>
<path id="path4_fill" fill-rule="evenodd" d="M 12.598 0L 0 399.902L 0.885997 399.931L 13.4843 0.0298726L 12.598 0Z"/>
<path id="path5_fill" fill-rule="evenodd" d="M 0 0L 5.99303 0.432451L 5.99303 7.4614L 0 7.02895L 0 0Z"/>
<path id="path6_fill" fill-rule="evenodd" d="M 0 0L 5.99303 0.432451L 5.99303 7.46141L 0 7.02896L 0 0Z"/>
<path id="path7_fill" fill-rule="evenodd" d="M 129.599 0L 0 17.3626L 0 24.6226L 129.599 7.26006L 129.599 0Z"/>
<path id="path8_fill" fill-rule="evenodd" d="M 0 17.4582L 129.832 0L 135.592 0.44913L 5.75969 17.9074L 0 17.4582Z"/>
<path id="path9_fill" fill-rule="evenodd" d="M 5.99303 0L 0 0.432451L 0 7.46141L 5.99303 7.02896L 5.99303 0Z"/>
<path id="path10_fill" fill-rule="evenodd" d="M 5.99303 0L 0 0.432451L 0 7.46141L 5.99303 7.02896L 5.99303 0Z"/>
<path id="path11_fill" fill-rule="evenodd" d="M 0 0L 129.599 17.3626L 129.599 24.6226L 0 7.26006L 0 0Z"/>
<path id="path12_fill" fill-rule="evenodd" d="M 135.592 17.4582L 5.75971 0L 0 0.44913L 129.833 17.9074L 135.592 17.4582Z"/>
<path id="path13_fill" fill-rule="evenodd" d="M 0.974563 0.000280607C 0.922712 0.00262662 0.871198 0.0140215 0.822714 0.0331248L 0.300504 0.240914C 0.0617884 0.329058 -0.059421 0.593152 0.0287925 0.830769C 0.117679 1.06805 0.382657 1.18904 0.621372 1.10056C 0.628443 1.09821 0.635176 1.09553 0.642247 1.09252L 1.04729 0.931648L 5.50679 1.63981L 6.61888 8.13826L 6.37781 8.44693C 6.22057 8.64634 6.25593 8.93457 6.45559 9.09108C 6.65592 9.24726 6.94547 9.21274 7.10271 9.01333C 7.10372 9.01232 7.10439 9.01132 7.1054 9.00997L 7.47072 8.54211C 7.54984 8.44023 7.58283 8.31019 7.56095 8.18317L 6.35963 1.16156C 6.32663 0.968178 6.17276 0.817028 5.97816 0.786195L 1.06614 0.00564292C 1.03618 0.000950896 1.0052 -0.000724827 0.974563 0.000280607Z"/>
<path id="path14_fill" fill-rule="evenodd" d="M 0.984792 0C 0.913077 0 0.842371 0.0164221 0.778063 0.0482608L 0.255517 0.308668C 0.0275765 0.421277 -0.0650138 0.696766 0.0484514 0.923324C 0.16158 1.15022 0.438004 1.24272 0.665945 1.12977C 0.666618 1.12977 0.667291 1.12944 0.667628 1.1291L 1.02385 0.95114L 3.98405 1.87245L 6.55435 8.09978L 6.30116 8.35214C 6.11766 8.52775 6.11194 8.81833 6.28803 9.00064C 6.46446 9.1833 6.75637 9.189 6.93986 9.01371C 6.94391 9.00936 6.94828 9.00534 6.95266 9.00064L 7.42302 8.53245C 7.55466 8.40174 7.59439 8.20535 7.52369 8.03409L 4.75406 1.32416C 4.70221 1.19814 4.59615 1.10162 4.46518 1.06107L 1.12115 0.020779C 1.07705 0.00703804 1.03126 0 0.984792 0Z"/>
<path id="path15_fill" fill-rule="evenodd" d="M 5.08373 0.000391478C 5.04231 -0.00128425 5.00056 0.00240235 4.96016 0.0117864L 0.414816 1.00046C 0.204721 1.04638 0.0542192 1.23037 0.0525357 1.44487L 1.17845e-05 8.62266C -0.000998292 8.76308 0.0629732 8.89614 0.172735 8.98394L 0.695281 9.39986C 0.893256 9.55905 1.18348 9.52822 1.34341 9.33115C 1.50301 9.13409 1.47203 8.84553 1.27439 8.68634C 1.27304 8.68567 1.27203 8.68466 1.27069 8.68365L 0.922885 8.40649L 0.970695 1.81788L 5.15679 0.907963C 5.40628 0.857356 5.56722 0.615047 5.51604 0.36704C 5.47361 0.160255 5.2955 0.00910524 5.08373 0.000391478Z"/>
<path id="path16_fill" fill-rule="evenodd" d="M 4.85954 1.48029e-05C 4.81813 -0.000320342 4.77672 0.00504197 4.73665 0.0154315L 1.0273 0.951825C 0.838748 0.999081 0.700367 1.15962 0.681848 1.35232L 0.0020637 8.42656C -0.0130875 8.58541 0.0559347 8.74092 0.184552 8.83644L 0.811475 9.30463C 1.01484 9.45679 1.30372 9.41557 1.45658 9.21314C 1.60944 9.01038 1.56803 8.72282 1.36433 8.571L 0.943796 8.25731L 1.56803 1.7612L 4.96358 0.90457C 5.21072 0.845585 5.36324 0.598248 5.30398 0.351917C 5.25482 0.146808 5.07132 0.00169053 4.85954 1.48029e-05Z"/>
<path id="path17_fill" fill-rule="evenodd" d="M 0.446354 0.000201087C 0.192151 0.00790941 -0.00784413 0.219721 0.000236497 0.472755C 0.00629696 0.677863 0.149055 0.853814 0.34905 0.903751L 3.21094 1.65045L 3.54325 8.12712L 2.89175 8.41468C 2.6591 8.51723 2.55371 8.78803 2.6564 9.01961C 2.75943 9.25153 3.03148 9.3561 3.26447 9.25388C 3.26514 9.25354 3.26548 9.25321 3.26615 9.25287L 4.20654 8.83696C 4.38094 8.75988 4.48936 8.58393 4.4796 8.39423L 4.11361 1.26906C 4.10351 1.06931 3.96479 0.899394 3.77052 0.848787L 0.583051 0.016288C 0.538608 0.00422282 0.492481 -0.00113949 0.446354 0.000201087Z"/>
<path id="path18_fill" fill-rule="evenodd" d="M 0.475632 0.000236169C 0.221429 -0.0078073 0.00863948 0.190598 0.000222169 0.443968C -0.00617499 0.649746 0.126145 0.835081 0.323784 0.896413L 3.41698 1.90654L 4.80685 8.29808L 4.30618 8.59737C 4.08498 8.72271 4.00787 9.00255 4.1338 9.22274C 4.25972 9.44293 4.5412 9.51968 4.76207 9.39434C 4.76813 9.39099 4.77419 9.3873 4.77991 9.38361L 5.56407 8.91542C 5.73309 8.8142 5.81861 8.61714 5.77686 8.42544L 4.26174 1.45577C 4.22706 1.29691 4.11057 1.16788 3.95501 1.11727L 0.610983 0.025372C 0.567549 0.0102905 0.521759 0.00157675 0.475632 0.000236169Z"/>
<path id="path19_fill" fill-rule="evenodd" d="M 6.65138 0.000367169C 6.62545 -0.000638265 6.59919 0.000367169 6.5736 0.00405376L 1.19123 0.628428C 0.977764 0.653229 0.810428 0.821471 0.786859 1.03395L 0.00270169 8.15913C -0.0164898 8.33541 0.0676834 8.50701 0.219532 8.59984L 0.898642 9.01609C 1.11244 9.15317 1.39762 9.09116 1.53533 8.87835C 1.6727 8.6652 1.61075 8.38166 1.39695 8.24459C 1.39156 8.24124 1.38651 8.23822 1.38146 8.23521L 0.950492 7.97044L 1.6626 1.49712L 6.67966 0.914977C 6.93285 0.890511 7.11803 0.665964 7.09312 0.413936C 7.0709 0.185367 6.88201 0.00874578 6.65138 0.000367169Z"/>
<path id="path20_fill" fill-rule="evenodd" d="M 6.41543 5.04809e-05C 6.38951 0.000385625 6.36358 0.00306678 6.338 0.00775881L 2.15795 0.736363C 1.97917 0.767532 1.8354 0.899914 1.79096 1.07486L 0.0142318 8.04419C -0.0345887 8.23556 0.0448708 8.43631 0.211534 8.54289L 0.943167 9.01108C 1.1536 9.15352 1.44013 9.09889 1.58322 8.88943C 1.72631 8.67996 1.67177 8.39475 1.46134 8.25265C 1.45494 8.24796 1.44787 8.2436 1.44114 8.23958L 0.988957 7.95002L 2.61013 1.5883L 6.49658 0.911309C 6.74741 0.870421 6.91778 0.634479 6.8767 0.384461C 6.84 0.160585 6.64371 -0.00330097 6.41543 5.04809e-05Z"/>
<path id="path21_fill" fill-rule="evenodd" d="M 0.0212178 4.85927C -0.239719 7.79112 1.93633 10.3788 4.88205 10.6385C 7.82744 10.8986 10.4267 8.73254 10.688 5.80036C 10.9489 2.86851 8.77287 0.28086 5.82748 0.0211231C 2.88176 -0.238614 0.282155 1.92709 0.0212178 4.85927Z"/>
<path id="path22_fill" fill-rule="evenodd" d="M 0.0212178 4.85927C -0.239719 7.79144 1.93633 10.3788 4.88205 10.6385C 7.82744 10.8986 10.4267 8.73253 10.688 5.80035C 10.9489 2.86851 8.77287 0.28086 5.82748 0.0211231C 2.88176 -0.238614 0.282155 1.92709 0.0212178 4.85927Z"/>
<path id="path23_fill" fill-rule="evenodd" d="M 0.0212206 4.85961C -0.239716 7.79146 1.93599 10.3791 4.88204 10.6388C 7.82742 10.8989 10.4267 8.73288 10.688 5.80069C 10.9489 2.86885 8.77285 0.281193 5.82714 0.0211203C 2.88176 -0.238617 0.282157 1.92742 0.0212206 4.85927L 0.0212206 4.85961Z"/>
<path id="path24_fill" fill-rule="evenodd" d="M 0.0135444 3.0924C -0.152782 4.95815 1.23204 6.60472 3.10674 6.77028C 4.98112 6.9355 6.63529 5.55705 6.80128 3.6913C 6.96727 1.82556 5.58279 0.178992 3.70842 0.0134302C 1.83371 -0.151796 0.179534 1.22665 0.0135444 3.0924Z"/>
<path id="path25_fill" fill-rule="evenodd" d="M 0.0135444 3.0924C -0.152782 4.95815 1.23203 6.60471 3.10674 6.77027C 4.98077 6.93583 6.63494 5.55705 6.80127 3.6913C 6.96726 1.82556 5.58244 0.178991 3.70841 0.0134302C 1.8337 -0.151796 0.179534 1.22665 0.0135444 3.0924Z"/>
<path id="path26_fill" fill-rule="evenodd" d="M 5.40403 19.1307L 2.19502 16.2233C -0.494821 13.7868 -0.747004 9.6183 1.62937 6.87682L 7.59085 0L 20.5098 11.7036L 14.5483 18.5804C 12.1719 21.3219 8.09354 21.5675 5.40403 19.1307Z"/>
<path id="path27_fill" fill-rule="evenodd" d="M 14.467 4.50572L 15.2353 8.16885C 15.8794 11.2388 13.9152 14.2263 10.8311 14.8674L 3.09387 16.4761L 0 1.73005L 7.7372 0.121686C 10.8213 -0.519447 13.8229 1.43579 14.467 4.50572Z"/>
<path id="path28_fill" fill-rule="evenodd" d="M 15.9673 0.0498663L 29.9586 1.28454C 36.8652 1.89383 41.9327 7.9194 41.3206 14.7946L 38.9257 41.6829L 0 38.2483L 2.39456 11.36C 3.007 4.4845 9.06006 -0.559427 15.9673 0.0498663Z"/>
<path id="path29_fill" fill-rule="evenodd" d="M 0 3.24823C 0.694597 1.77762 2.05585 0.634779 3.62921 0.201102C 5.0716 -0.196714 6.66988 0.00202625 7.96918 0.741019C 9.26848 1.47968 10.253 2.74887 10.6415 4.18697C 9.99304 5.04729 9.1173 5.73635 8.12709 6.16634C 7.13654 6.59633 6.03387 6.76624 4.95915 6.65431C 2.87603 6.43713 0.943413 5.10963 0 3.24823Z"/>
<path id="path30_fill" fill-rule="evenodd" d="M 6.49628 3.52588C 6.3377 5.30818 4.7576 6.62463 2.96741 6.46678C 1.17689 6.30859 -0.145975 4.73575 0.0129437 2.95379C 0.171525 1.17148 1.75162 -0.145304 3.54215 0.0128842C 5.33234 0.170738 6.6552 1.74358 6.49628 3.52588Z"/>
<path id="path31_fill" fill-rule="evenodd" d="M 0 3.24742C 0.945433 2.53859 2.05652 2.05095 3.22013 1.83512C 4.53895 1.59046 5.91737 1.69603 7.19512 2.10357C 8.48701 2.51546 9.67823 3.23569 10.6415 4.18616C 10.3799 3.22396 9.85735 2.33314 9.14424 1.63336C 8.21294 0.719088 6.95641 0.139958 5.65341 0.0226575C 4.65377 -0.0671612 3.63056 0.111136 2.72351 0.538445C 2.05517 0.85281 1.45081 1.30023 0.95183 1.8435C 0.568001 2.26176 0.245786 2.73632 0 3.24742Z"/>
<path id="path32_fill" fill-rule="evenodd" d="M 0.866833 0.520097L 7.3889 0.00330485C 7.90471 -0.0375827 8.35082 0.305605 8.38786 0.773131L 8.48348 1.96826C 8.52085 2.43578 8.13534 2.84499 7.61953 2.88588L 1.09747 3.40267C 0.580981 3.44356 0.135201 3.10004 0.098165 2.63285L 0.00254445 1.43739C -0.0351651 0.970196 0.350684 0.560985 0.866833 0.520097Z"/>
<path id="path33_fill" fill-rule="evenodd" d="M 0.000336696 1.64757C 0.347134 1.57048 0.666322 1.37376 0.889552 1.09827C 1.13803 0.792615 1.26564 0.392454 1.23972 0C 1.15184 0.363966 0.983827 0.708494 0.750833 1.00242C 0.545111 1.26282 0.288549 1.48301 0 1.64757L 0.000336696 1.64757Z"/>
<path id="path34_fill" fill-rule="evenodd" d="M 0.706136 0.614944C 0.596039 0.863292 0.361032 1.00003 0.181578 0.921274C 0.00212399 0.842178 -0.053766 0.576737 0.0566672 0.328724C 0.167101 0.0803761 0.402445 -0.0567012 0.581562 0.0223947C 0.760679 0.101491 0.816569 0.366931 0.706136 0.614944Z"/>
<path id="path35_fill" fill-rule="evenodd" d="M 10.6415 4.18624C 10.2173 2.61676 9.07925 1.25372 7.60723 0.550925C 6.25777 -0.0928873 4.64939 -0.177009 3.23966 0.322692C 1.82992 0.822057 0.636685 1.89921 0 3.24716C 0.486521 4.20735 1.22657 5.03884 2.12554 5.63574C 3.02451 6.23229 4.08004 6.59257 5.15779 6.67066C 7.24663 6.82181 9.38396 5.85324 10.6415 4.18624Z"/>
<path id="path36_fill" fill-rule="evenodd" d="M 0.0129437 2.95344C -0.145975 4.73574 1.17689 6.30857 2.96742 6.46643C 4.75762 6.62428 6.33772 5.30783 6.4963 3.52553C 6.65522 1.74357 5.33236 0.170737 3.54216 0.0128842C 1.75163 -0.145304 0.171526 1.17148 0.0129437 2.95344Z"/>
<path id="path37_fill" fill-rule="evenodd" d="M 10.6415 4.1852C 9.83613 3.32186 8.82808 2.64722 7.72103 2.23097C 6.46618 1.75908 5.09045 1.62167 3.76052 1.7993C 2.41611 1.97894 1.11614 2.47897 0 3.24612C 0.427599 2.34458 1.0993 1.55934 1.92521 0.994954C 3.00363 0.258306 4.34266 -0.0919205 5.646 0.0206881C 6.64597 0.107491 7.62171 0.462074 8.4392 1.04154C 9.04154 1.46818 9.55735 2.01446 9.95263 2.63649C 10.2567 3.11541 10.4897 3.63925 10.6415 4.1852Z"/>
<path id="path38_fill" fill-rule="evenodd" d="M 7.7798 1.68439L 1.45066 0.0338014C 0.949999 -0.0969048 0.450347 0.162832 0.331158 0.616617L 0.0257785 1.77622C -0.0937473 2.23 0.213653 2.70021 0.714314 2.83091L 7.04345 4.48183C 7.54445 4.6122 8.04377 4.35247 8.16329 3.89868L 8.46834 2.73875C 8.58786 2.2853 8.2808 1.81509 7.7798 1.68439Z"/>
<path id="path39_fill" fill-rule="evenodd" d="M 0.974526 1.83894C 0.646586 1.70254 0.367466 1.45286 0.196089 1.14285C 0.00552049 0.798317 -0.0493606 0.381731 0.0455871 0C 0.0678089 0.373687 0.172184 0.742682 0.349285 1.0728C 0.506184 1.36471 0.719648 1.62646 0.974526 1.83894Z"/>
<path id="path40_fill" fill-rule="evenodd" d="M 0.0195853 0.568758C 0.0845671 0.832518 0.291633 1.00847 0.482202 0.961884C 0.672434 0.915634 0.774452 0.664275 0.70947 0.400515C 0.644488 0.136756 0.437422 -0.0388601 0.24719 0.00738998C 0.0566216 0.05364 -0.0453965 0.304999 0.0195853 0.568758Z"/>
<path id="path41_fill" fill-rule="evenodd" d="M 2.47731 0C 2.67866 0.750388 2.88 1.50078 3.08201 2.25083C 3.28302 2.99753 3.48503 3.74993 3.53756 4.5211C 3.59042 5.29227 3.48369 6.09259 3.10087 6.76489C 2.66283 7.53371 1.91032 8.06559 1.17263 8.55691C 0.833246 8.7828 0.483759 9.01338 0.247064 9.3445C 0.128885 9.51006 0.0416819 9.70009 0.0113796 9.90084C -0.0189227 10.1019 0.0103695 10.3144 0.110367 10.4914C 0.242014 10.7253 0.487799 10.8818 0.749409 10.9465C 1.01068 11.0105 1.28677 10.9901 1.55006 10.9324C 1.80932 10.8751 2.06049 10.7819 2.29415 10.6566C 2.15039 10.9515 2.09887 11.2907 2.14904 11.6148C 2.23153 12.1443 2.57529 12.6055 2.99481 12.9416C 3.56113 13.3947 4.28165 13.6541 5.00857 13.6652C 5.73515 13.6786 6.46409 13.4443 7.04556 13.0103C 7.47652 12.6889 7.83611 12.2398 7.93644 11.7133C 7.99772 11.3909 7.95799 11.0504 7.82433 10.7511C 8.05361 10.8842 8.30142 10.9857 8.55865 11.0514C 8.81959 11.1181 9.09467 11.1479 9.3583 11.0926C 9.62193 11.0373 9.8731 10.8892 10.0125 10.6599C 10.1182 10.4863 10.1549 10.2752 10.1313 10.0731C 10.1081 9.87168 10.0276 9.67864 9.91518 9.50939C 9.69028 9.16989 9.34853 8.92758 9.01723 8.6903C 8.29671 8.17417 7.56305 7.61683 7.15195 6.83393C 6.79169 6.1489 6.71324 5.34522 6.79203 4.5764C 6.87149 3.80758 7.09943 3.06255 7.32568 2.32322C 7.55329 1.58021 7.78056 0.837191 8.00715 0.0938405L 2.47731 0Z"/>
<path id="path42_fill" fill-rule="evenodd" d="M 0 1.0614C 0.918833 1.7709 2.06224 2.18815 3.2245 2.23776C 4.31168 2.28367 5.41031 2.00919 6.34698 1.45721L 3.36524 0L 0 1.0614Z"/>
<path id="path43_fill" fill-rule="evenodd" d="M 2.07293 0.00150473C 1.91166 -0.0055333 1.7487 0.0122293 1.59214 0.0524467C 1.05006 0.191532 0.597211 0.59471 0.33257 1.08536C 0.0675931 1.57635 -0.0216304 2.14777 0.00429491 2.70444C 0.0312303 3.27117 0.174998 3.83388 0.437955 4.33693C 0.700575 4.84032 1.08306 5.28304 1.55274 5.60411C 2.01974 5.92317 2.56518 6.11856 3.12308 6.21575C 3.68098 6.31328 4.25268 6.31562 4.81698 6.27038C 6.02503 6.17386 7.20379 5.86485 8.39535 5.645C 9.16705 5.50256 9.94548 5.39766 10.7273 5.32963C 11.5034 5.49318 12.271 5.6946 13.0269 5.93389C 14.1817 6.29954 15.3124 6.75332 16.4989 6.99898C 17.0534 7.11427 17.6207 7.18298 18.1864 7.15583C 18.7523 7.12835 19.318 7.00233 19.8213 6.74327C 20.3277 6.48319 20.7627 6.09141 21.0866 5.62455C 21.4102 5.15837 21.6233 4.61778 21.7206 4.0591C 21.8169 3.51046 21.7998 2.93201 21.5984 2.41186C 21.3974 1.89205 20.9988 1.43592 20.4782 1.23048C 20.1779 1.11184 19.8409 1.07966 19.5274 1.15641C 19.2136 1.23316 18.9254 1.42151 18.7446 1.68795C 18.5897 1.91618 18.5163 2.19804 18.5402 2.47252C 18.62 2.20977 18.7931 1.97651 19.0217 1.82368C 19.2507 1.67052 19.5331 1.59981 19.8075 1.62595C 20.0193 1.64606 20.2257 1.72381 20.3957 1.85083C 20.5658 1.97785 20.6981 2.15481 20.7691 2.35455C 20.8324 2.53184 20.8462 2.72522 20.8163 2.91123C 20.7863 3.09656 20.7132 3.27486 20.6099 3.43204C 20.4025 3.74708 20.0789 3.9743 19.7284 4.11473C 19.2624 4.30241 18.7429 4.34665 18.2466 4.26655C 17.7504 4.18645 17.2776 3.98503 16.8611 3.70485C 16.2578 3.29832 15.7652 2.72723 15.1087 2.41253C 14.6161 2.17693 14.0565 2.10118 13.5114 2.13972C 12.9663 2.17827 12.434 2.32707 11.9242 2.52246C 11.5687 2.65886 11.2222 2.81739 10.8869 2.99769C 10.5771 2.77717 10.2529 2.57675 9.9172 2.39712C 9.43573 2.1404 8.92631 1.92624 8.39097 1.82033C 7.85496 1.71409 7.28965 1.71979 6.77182 1.89272C 6.08092 2.12297 5.52067 2.6287 4.87085 2.95681C 4.42271 3.18303 3.92777 3.32446 3.42543 3.34222C 2.92308 3.35999 2.41333 3.2514 1.97462 3.00775C 1.64432 2.82409 1.3514 2.55866 1.18575 2.22049C 1.10259 2.05158 1.05242 1.86558 1.04602 1.6779C 1.03996 1.48955 1.07801 1.29952 1.16252 1.13128C 1.25814 0.942255 1.41201 0.783396 1.59651 0.678496C 1.78102 0.573261 1.9955 0.521984 2.20795 0.528016C 2.48336 0.53606 2.75507 0.64163 2.96315 0.821603C 3.17089 1.00191 3.31331 1.25494 3.35944 1.52541C 3.41768 1.25628 3.37998 0.967726 3.25506 0.72173C 3.10894 0.434846 2.84665 0.21231 2.54498 0.0970208C 2.39414 0.039376 2.23421 0.00854276 2.07293 0.00150473Z"/>
<path id="path44_fill" fill-rule="evenodd" d="M 0.0666651 7.45774C 2.05652 5.05341 4.60528 3.11058 7.45572 1.82497C 10.6732 0.373798 14.27 -0.233148 17.7878 0.0805471L 15.5761 9.58289L 0 8.20813L 0.0666651 7.45774Z"/>
<path id="path45_fill" fill-rule="evenodd" d="M 17.7878 0.031376C 7.04462 -0.458942 2.38917 4.92282 0.0666652 7.40859L 0 8.15932L 2.44473 8.37515C 6.08101 3.32552 10.1038 2.36466 17.0936 3.01316L 17.7878 0.031376Z"/>
<path id="path46_fill" fill-rule="evenodd" d="M 25.0065 11.1473C 19.9474 4.35822 9.03751 3.05719 0 0L 0.497632 9.74132L 24.9399 11.898L 25.0065 11.1473Z"/>
<path id="path47_fill" fill-rule="evenodd" d="M 0 0C 12.4549 1.35097 23.3247 4.44368 25.3762 11.1798L 25.3095 11.9308L 22.8648 11.715C 20.8635 5.82582 7.83383 3.09305 0.156225 3.05686L 0 0Z"/>
<path id="path48_fill" fill-rule="evenodd" d="M 2.36089 0L 67.8146 5.77521L 57.5576 76.2678L 0 71.1891L 2.36089 0Z"/>
<path id="path49_fill" fill-rule="evenodd" d="M 4.6605 10.0567L 63.1474 0L 66.2029 15.0704L 0 42.0854L 4.6605 10.0567Z"/>
<path id="path50_fill" fill-rule="evenodd" d="M 58.0653 38.5356L 13.3182 76.0185L 0 64.2294L 53.683 0L 58.0653 38.5356Z"/>
<path id="path51_fill" fill-rule="evenodd" d="M 57.5576 5.07878L 88.9162 74.4809L 71.6351 82.7536L 0 0L 57.5576 5.07878Z"/>
<path id="path52_fill" fill-rule="evenodd" d="M 29.7532 0L 0 73.5549L 18.5356 78.445L 87.3108 5.07878L 29.7532 0Z"/>
<path id="path53_fill" fill-rule="evenodd" d="M 0 0L 29.1826 0L 29.1826 28.8306L 0 28.8306L 0 0Z"/>
<path id="path54_fill" fill-rule="evenodd" d="M 0 11.6247C 0.323225 8.73541 1.66158 5.96879 3.72954 3.91569C 6.34227 1.32201 10.0718 -0.072191 13.7616 0.00288138C 17.4511 0.0779538 21.0645 1.58275 23.8247 4.02127C 25.8442 5.80557 27.427 8.0869 28.3276 10.6209C 29.2279 13.1546 29.4367 15.9373 28.8616 18.5635C 28.2862 21.1894 26.9206 23.648 24.9479 25.4833C 22.9749 27.3182 20.3985 28.514 17.711 28.775C 15.8458 28.9564 13.9387 28.6919 12.1947 28.0102L 8.43717 25.9223C 9.98562 26.3902 11.6728 26.3935 13.2233 25.9327C 14.7741 25.4719 16.1824 24.5482 17.2205 23.3119C 18.1393 22.2166 18.7656 20.8821 19.0319 19.4798C 19.2979 18.0779 19.2053 16.611 18.776 15.2493C 17.9262 12.5554 15.7077 10.3284 13.0088 9.45966L 0 11.6247Z"/>
<path id="path55_fill" fill-rule="evenodd" d="M 53.4422 89.8446L 67.2662 87.3363C 63.6585 69.9939 57.0014 53.2846 47.6881 38.1944C 39.8691 25.5246 29.9007 13.759 16.8868 6.45891C 11.6149 3.50159 5.90525 1.31779 0 0C 7.19344 4.42894 13.7761 9.83884 19.5073 16.031C 31.2161 28.682 39.1796 44.3628 45.063 60.5365C 48.54 70.0948 51.3423 79.8961 53.4422 89.8446Z"/>
<path id="path56_fill" fill-rule="evenodd" d="M 23.0998 0L 0 24.2276L 43.1754 70.8761L 43.7734 78.3535L 46.7114 86.8226L 54.6863 83.4959L 53.6574 79.3747L 62.609 79.192L 80.0137 72.348C 79.9776 71.2273 79.6504 70.1173 79.0729 69.1548C 78.4955 68.1922 77.6689 67.3788 76.6956 66.8155C 75.5027 66.1254 74.1131 65.8181 72.734 65.7792C 71.3553 65.7403 69.9806 65.9608 68.6365 66.2695C 65.9483 66.8879 63.3026 67.8692 60.5437 67.8916C 58.1088 67.9117 55.6735 67.1543 53.6833 65.7578L 23.0998 0Z"/>
<path id="path57_fill" fill-rule="evenodd" d="M 0 0L 76.6289 0L 76.6289 91.5256L 0 91.5256L 0 0Z"/>
<path id="path58_fill" fill-rule="evenodd" d="M 76.6289 14.5399L 43.8434 0L 13.8445 56.5647L 6.99008 59.6815L 0 65.326L 5.86788 71.6479L 9.40618 69.2757L 12.6405 77.5863L 25.054 91.5256C 26.0997 91.1084 27.0358 90.423 27.7472 89.5536C 28.4583 88.6839 28.9435 87.6329 29.1421 86.5293C 29.3859 85.178 29.2007 83.7727 28.7657 82.4697C 28.3307 81.167 27.6526 79.9561 26.9011 78.8049C 25.3981 76.5018 23.5668 74.3629 22.6018 71.7896C 21.7503 69.519 21.6325 66.982 22.2699 64.6427L 76.6289 14.5399Z"/>
<path id="path59_fill" fill-rule="evenodd" d="M 10.6877 5.8007C 10.4268 8.73255 7.82715 10.8986 4.88176 10.6389C 1.93637 10.3788 -0.240006 7.79112 0.0212671 4.85928C 0.282204 1.92743 2.88181 -0.238617 5.8272 0.0211203C 8.77292 0.281193 10.949 2.86851 10.6877 5.8007Z"/>
<path id="path60_fill" fill-rule="evenodd" d="M 10.688 5.80042C 10.427 8.7326 7.82744 10.8983 4.88172 10.6386C 1.93633 10.3788 -0.239719 7.79118 0.0212178 4.85933C 0.282492 1.92714 2.8821 -0.238901 5.82749 0.0211722C 8.77321 0.28091 10.9489 2.86857 10.688 5.80042Z"/>
<path id="path61_fill" fill-rule="evenodd" d="M 10.6877 5.80068C 10.4268 8.73252 7.82715 10.8986 4.88143 10.6388C 1.93604 10.3787 -0.240003 7.7911 0.02127 4.85926C 0.282207 1.92742 2.88147 -0.238616 5.8272 0.0211202C 8.77258 0.281192 10.9486 2.86851 10.6877 5.80068Z"/>
<path id="path62_fill" fill-rule="evenodd" d="M 6.80122 3.69132C 6.63523 5.55708 4.98106 6.93553 3.10636 6.77031C 1.23199 6.60474 -0.152494 4.95817 0.0134951 3.09242C 0.179485 1.22666 1.83399 -0.151797 3.70803 0.0134302C 5.58273 0.178992 6.96755 1.82556 6.80122 3.69132Z"/>
<path id="path63_fill" fill-rule="evenodd" d="M 6.80156 3.6913C 6.63523 5.55705 4.98106 6.9355 3.10669 6.77028C 1.23232 6.60472 -0.152497 4.95815 0.0134922 3.0924C 0.179818 1.22665 1.83399 -0.151796 3.70836 0.0134302C 5.58273 0.178992 6.96755 1.82556 6.80156 3.6913Z"/>
<path id="path64_fill" fill-rule="evenodd" d="M 0 37.101L 93.644 45.364C 89.9148 42.6446 86.6967 39.2338 84.2035 35.3589C 79.9531 28.7525 77.8615 20.9393 73.5044 14.4026C 69.6654 8.64285 64.0463 4.0078 57.5098 1.67419C 50.9736 -0.659086 43.5397 -0.605798 37.1773 2.16384C 31.1643 4.78132 26.396 9.5903 22.255 14.6584C 18.1134 19.7264 14.4168 25.1879 9.72873 29.76C 6.81432 32.6023 3.53662 35.0757 0 37.101Z"/>
<path id="path65_fill" fill-rule="evenodd" d="M 2.01873 0.00382196L 61.016 5.20962C 61.5958 5.26123 62.0177 5.80785 61.9618 6.43591L 61.0952 16.1648C 61.0389 16.7929 60.5275 17.257 59.9477 17.2061L 0.950406 12.0003C 0.370621 11.9494 -0.0509178 11.4024 0.00497318 10.7744L 0.871283 1.04512C 0.927174 0.417055 1.43895 -0.04712 2.01873 0.00382196Z"/>
<path id="path66_fill" fill-rule="evenodd" d="M 14.0387 9.73916C 13.5912 14.7653 10.096 18.5635 6.23248 18.2224C 2.36893 17.8818 -0.400037 13.5307 0.0474279 8.50449C 0.494893 3.47832 3.98977 -0.319879 7.85365 0.0212989C 11.7169 0.362141 14.4862 4.71299 14.0387 9.73916Z"/>
<path id="path67_fill" fill-rule="evenodd" d="M 5.07355 3.20698C 5.14055 5.02849 4.05976 6.54636 2.6598 6.5973C 1.25949 6.64858 0.0702929 5.21316 0.00295435 3.39165C -0.0640475 1.57014 1.01674 0.0522743 2.41704 0.00133243C 3.81735 -0.0499446 5.00654 1.38514 5.07355 3.20698Z"/>
<path id="path68_fill" fill-rule="evenodd" d="M 5.07386 3.20698C 5.14086 5.02883 4.06008 6.54669 2.65977 6.59764C 1.2598 6.64891 0.0702641 5.21316 0.0029255 3.39198C -0.0637397 1.57014 1.01704 0.052274 2.41701 0.00133213C 3.81766 -0.0499449 5.00686 1.38548 5.07386 3.20698Z"/>
<path id="path69_fill" fill-rule="evenodd" d="M 5.07388 3.20696C 5.14054 5.0288 4.05976 6.54666 2.65979 6.59761C 1.25949 6.64888 0.0702928 5.21346 0.00295434 3.39196C -0.0640474 1.57046 1.01674 0.0522571 2.41704 0.00131533C 3.81734 -0.0496265 5.00688 1.38546 5.07388 3.20696Z"/>
<path id="path70_fill" fill-rule="evenodd" d="M 5.07389 3.20665C 5.14055 5.02849 4.05977 6.54636 2.6598 6.5973C 1.25949 6.64858 0.0702929 5.21316 0.00295435 3.39165C -0.0640475 1.57014 1.01674 0.0519392 2.41704 0.00133243C 3.81735 -0.0499446 5.00689 1.38514 5.07389 3.20665Z"/>
<path id="path71_fill" fill-rule="evenodd" d="M 0 34.0649L 93.644 42.3279C 89.9353 39.8586 86.6936 36.6965 84.1381 33.0551C 79.8834 26.9924 77.5868 19.7358 73.297 13.6975C 69.3217 8.10229 63.6218 3.68173 57.0933 1.50698C 50.5645 -0.667778 43.23 -0.527353 36.9056 2.18028C 31.1693 4.63622 26.4903 9.01623 22.3187 13.6419C 18.1471 18.2669 14.3323 23.2435 9.67049 27.3788C 6.73318 29.9846 3.47837 32.2347 0 34.0649Z"/>
<path id="path72_fill" fill-rule="evenodd" d="M 9.77029 40.0987C 12.6335 35.7827 15.2001 31.2713 17.4459 26.6068C 18.658 24.0889 19.7812 21.5146 20.5071 18.8174C 21.233 16.1205 21.5539 13.2861 21.1458 10.5235C 20.7377 7.76095 19.5677 5.07074 17.6021 3.07898C 15.6368 1.08654 12.8429 -0.1488 10.043 0.0144158C 7.33499 0.172269 4.78488 1.62411 3.05159 3.70067C 1.3183 5.77756 0.364782 8.43224 0.090378 11.1184C -0.457758 16.4908 1.57991 21.7606 3.70275 26.7298C 5.62459 31.2304 7.64778 35.6882 9.77029 40.0987Z"/>
<path id="path73_fill" fill-rule="evenodd" d="M 14.0451 8.94174C 14.1852 13.9857 11.1556 18.1612 7.27824 18.2678C 3.40122 18.3744 0.144732 14.3721 0.00466738 9.32783C -0.135397 4.28424 2.89416 0.108669 6.77118 0.0020928C 10.6485 -0.104818 13.9054 3.89782 14.0451 8.94174Z"/>
</defs>
</svg>
