<svg width="35" height="45" viewBox="0 0 35 45" version="1.1" xmlns="http://www.w3.org/2000/svg" xmlns:xlink="http://www.w3.org/1999/xlink">
<title>Fill 1</title>
<desc>Created using Figma</desc>
<g id="Canvas" transform="translate(-922 -2465)">
<g id="Fill 1">
<use xlink:href="#path0_fill" transform="translate(922.001 2465)" fill="#23DAF8"/>
</g>
</g>
<defs>
<path id="path0_fill" fill-rule="evenodd" d="M 24.6833 22.9051C 23.7037 23.8847 22.5405 24.595 21.2773 25.0621C 21.3679 24.502 21.4513 23.9419 21.4513 23.3579C 21.4513 17.4445 16.6391 12.6323 10.7257 12.6323C 10.2084 12.6323 9.71506 12.7157 9.2193 12.7849C 9.67693 11.6074 10.3729 10.4991 11.3239 9.54809C 13.1663 7.70805 15.5856 6.78564 18.0024 6.78564C 20.4216 6.78564 22.8409 7.70805 24.6833 9.54809C 28.3657 13.2306 28.3657 19.2226 24.6833 22.9051ZM 19.9115 25.477C 19.2894 25.6034 18.6531 25.6725 18.0024 25.6725C 15.4807 25.6725 13.1091 24.6905 11.3239 22.9053C 8.9404 20.5218 8.12525 17.173 8.82838 14.1055C 9.43855 13.9791 10.0749 13.9148 10.7256 13.9148C 15.9335 13.9148 20.1689 18.1502 20.1689 23.3581C 20.1689 24.0898 20.0665 24.793 19.9115 25.477ZM 10.7256 32.8038C 5.51534 32.8038 1.27991 28.5659 1.27991 23.358C 1.27991 19.3085 3.85644 15.8739 7.44596 14.5344C 6.92397 17.8141 7.89643 21.2892 10.4205 23.8109C 12.4441 25.8369 15.1374 26.9523 18.0024 26.9523C 18.51 26.9523 19.0034 26.8761 19.4968 26.8069C 18.1144 30.3106 14.7132 32.8038 10.7256 32.8038ZM 25.098 0L 25.098 1.27993L 32.0458 1.27993L 25.0885 8.23729C 20.884 4.50715 14.4462 4.61441 10.4206 8.64248C 9.13824 9.92479 8.29688 11.4645 7.80111 13.09C 3.31303 14.3724 0 18.4648 0 23.3581C 0 29.0546 4.47378 33.6809 10.0845 34.0193L 10.0845 38.6337L 6.21133 38.6337L 6.21133 39.9137L 10.0845 39.9137L 10.0845 45L 11.3644 45L 11.3644 39.9137L 15.2376 39.9137L 15.2376 38.6337L 11.3644 38.6337L 11.3644 34.0193C 15.893 33.7476 19.6351 30.6777 20.9269 26.4995C 22.6645 26.0085 24.2733 25.1242 25.5866 23.8109C 29.6123 19.7828 29.7219 13.3475 25.9942 9.14062L 32.9515 2.18565L 32.9492 9.13109L 34.2315 9.13347L 34.2315 0L 25.098 0Z"/>
</defs>
</svg>
