<svg width="45" height="44" viewBox="0 0 45 44" version="1.1" xmlns="http://www.w3.org/2000/svg" xmlns:xlink="http://www.w3.org/1999/xlink">
<title>Page 1</title>
<desc>Created using Figma</desc>
<g id="Canvas" transform="translate(-685 -2902)">
<g id="Page 1">
<g id="Group 15">
<g id="Fill 1">
<use xlink:href="#path0_fill" transform="translate(694.517 2911.12)" fill="#23DAF8"/>
</g>
<g id="Fill 3">
<use xlink:href="#path1_fill" transform="translate(685.523 2902.12)" fill="#23DAF8"/>
</g>
<g id="Fill 5">
<use xlink:href="#path2_fill" transform="translate(708.25 2906.73)" fill="#FFFFFF"/>
</g>
<g id="Fill 7">
<use xlink:href="#path3_fill" transform="translate(708.084 2919.77)" fill="#23DAF8"/>
</g>
<g id="Fill 9">
<use xlink:href="#path4_fill" transform="translate(688.402 2908.17)" fill="#FFFFFF"/>
</g>
<g id="Fill 10">
<use xlink:href="#path5_fill" transform="translate(706.83 2914.76)" fill="#23DAF8"/>
</g>
<g id="Fill 11">
<use xlink:href="#path6_fill" transform="translate(706.829 2923.63)" fill="#23DAF8"/>
</g>
<g id="Fill 12">
<use xlink:href="#path7_fill" transform="translate(703.867 2911.24)" fill="#23DAF8"/>
</g>
<g id="Fill 13">
<use xlink:href="#path8_fill" transform="translate(703.866 2936.6)" fill="#23DAF8"/>
</g>
<g id="Fill 14">
<use xlink:href="#path9_fill" transform="translate(699.506 2910.13)" fill="#23DAF8"/>
</g>
<g id="Fill 15">
<use xlink:href="#path10_fill" transform="translate(700.007 2937.85)" fill="#23DAF8"/>
</g>
<g id="Fill 16">
<use xlink:href="#path8_fill" transform="translate(694.997 2911.24)" fill="#23DAF8"/>
</g>
<g id="Fill 17">
<use xlink:href="#path7_fill" transform="translate(694.997 2936.6)" fill="#23DAF8"/>
</g>
<g id="Fill 18">
<use xlink:href="#path11_fill" transform="translate(691.47 2914.76)" fill="#23DAF8"/>
</g>
<g id="Fill 19">
<use xlink:href="#path12_fill" transform="translate(691.472 2923.63)" fill="#23DAF8"/>
</g>
<g id="Fill 20">
<use xlink:href="#path13_fill" transform="translate(690.366 2919.77)" fill="#23DAF8"/>
</g>
</g>
</g>
</g>
<defs>
<path id="path0_fill" fill-rule="evenodd" d="M 28.5827 11.2092C 28.2739 11.2092 28.0234 11.4596 28.0234 11.7706L 28.0234 33.6272L 23.5406 33.6272L 23.5406 17.374C 23.5406 17.0652 23.2881 16.8147 22.9772 16.8147L 11.7681 16.8147C 11.4592 16.8147 11.2109 17.0652 11.2109 17.374L 11.2109 33.6272L 6.72603 33.6272L 6.72603 11.7706C 6.72603 11.4596 6.4756 11.2092 6.16673 11.2092L 2.41229 11.2092L 17.3737 1.2356L 32.3372 11.2092L 28.5827 11.2092ZM 12.3316 33.6292L 22.42 33.6292L 22.42 17.9353L 12.3316 17.9353L 12.3316 33.6292ZM 34.4993 11.303L 17.6847 0.093913C 17.4968 -0.0313044 17.2506 -0.0313044 17.0628 0.093913L 0.250236 11.303C 0.0436273 11.4386 -0.0481988 11.6953 0.0248447 11.9332C 0.0978882 12.169 0.314932 12.3297 0.561193 12.3297L 5.60537 12.3297L 5.60537 34.1864C 5.60537 34.4974 5.8558 34.7478 6.16676 34.7478L 11.7681 34.7478L 22.9772 34.7478L 28.5828 34.7478C 28.8916 34.7478 29.1462 34.4974 29.1462 34.1864L 29.1462 12.3297L 34.1883 12.3297C 34.4367 12.3297 34.6516 12.169 34.7247 11.9332C 34.7977 11.6953 34.7059 11.4386 34.4993 11.303Z"/>
<path id="path1_fill" fill-rule="evenodd" d="M 7.26261 7.57554L 4.27617 4.61206L 1.41913 7.45032L 4.40348 10.4347C 5.21739 9.34945 6.1753 8.38945 7.26261 7.57554ZM 17.0087 5.21736L 17.0087 1.00171L 12.9788 1.00171L 12.9788 5.21736C 13.6278 5.11301 14.2956 5.0504 14.9843 5.0504C 15.6709 5.0504 16.3596 5.11301 17.0087 5.21736ZM 27.1096 18.1775C 27.1096 11.4783 21.6835 6.05225 14.9844 6.05225C 8.3061 6.05225 2.87793 11.4783 2.87793 18.1775C 2.87793 24.8557 8.3061 30.2818 14.9844 30.2818C 21.6835 30.2818 27.1096 24.8557 27.1096 18.1775ZM 25.584 10.4347L 28.5704 7.45032L 25.7113 4.61206L 22.7269 7.57554C 23.8121 8.38945 24.7721 9.34945 25.584 10.4347ZM 29.9896 7.45043L 26.1496 11.2904C 27.3997 13.2939 28.1322 15.6522 28.1322 18.1774C 28.1322 25.3983 22.2261 31.3043 14.9843 31.3043C 7.76139 31.3043 1.85739 25.3983 1.85739 18.1774C 1.85739 15.6522 2.58783 13.2939 3.83791 11.2904L 0 7.45043L 4.27617 3.17217L 8.11826 7.01217C 9.28696 6.28174 10.5809 5.73913 11.9583 5.40522L 11.9583 0L 18.0313 0L 18.0313 5.40522C 19.4066 5.73913 20.7005 6.28174 21.8713 7.01217L 25.7113 3.17217L 29.9896 7.45043Z"/>
<path id="path2_fill" fill-rule="evenodd" d="M 5.84348 2.83826L 2.85704 5.82261C 2.04522 4.73739 1.08522 3.77739 0 2.96348L 2.98435 0L 5.84348 2.83826Z"/>
<path id="path3_fill" fill-rule="evenodd" d="M 0 1.02261L 2.58574 1.02261L 2.58574 0L 0 0L 0 1.02261Z"/>
<path id="path4_fill" fill-rule="evenodd" d="M 1.96381 12.6261L 4.55163 12.6261L 4.55163 11.6035L 1.96381 11.6035L 1.96381 12.6261ZM 5.80171 16.3409L 5.30084 15.4644L 3.06989 16.7583L 3.56867 17.6348L 5.80171 16.3409ZM 5.30084 8.76516L 5.80171 7.88864L 3.56867 6.59473L 3.06989 7.47125L 5.30084 8.76516ZM 7.47131 21.1616L 8.76522 18.9286L 7.8887 18.4277L 6.59479 20.6608L 7.47131 21.1616ZM 8.76522 5.30091L 7.47131 3.06787L 6.59479 3.56874L 7.8887 5.80178L 8.76522 5.30091ZM 11.6056 22.2678L 12.6282 22.2678L 12.6282 19.6799L 11.6056 19.6799L 11.6056 22.2678ZM 13.1269 12.1251C 13.1269 11.7495 12.9183 11.4365 12.6282 11.2695L 12.6282 1.96167L 11.6056 1.96167L 11.6056 11.2695C 11.3113 11.4365 11.1026 11.7495 11.1026 12.1251C 11.1026 12.6678 11.5617 13.1269 12.1064 13.1269C 12.6678 13.1269 13.1269 12.6678 13.1269 12.1251ZM 17.6348 20.6608L 16.3409 18.4277L 15.4644 18.9286L 16.7583 21.1616L 17.6348 20.6608ZM 16.3409 5.80178L 17.6348 3.56874L 16.7583 3.06787L 15.4644 5.30091L 16.3409 5.80178ZM 20.6609 17.6348L 21.1639 16.7583L 18.9287 15.4644L 18.4279 16.3409L 20.6609 17.6348ZM 21.1639 7.47125L 20.6609 6.59473L 18.4279 7.88864L 18.9287 8.76516L 21.1639 7.47125ZM 19.6821 12.6261L 22.2678 12.6261L 22.2678 11.6035L 19.6821 11.6035L 19.6821 12.6261ZM 12.1064 0C 18.8056 0 24.2296 5.42609 24.2296 12.1252C 24.2296 18.8035 18.8056 24.2296 12.1064 24.2296C 5.42817 24.2296 0 18.8035 0 12.1252C 0 5.42609 5.42817 0 12.1064 0Z"/>
<path id="path5_fill" fill-rule="evenodd" d="M 2.23304 0L 2.73391 0.876522L 0.50087 2.17043L 0 1.29391L 2.23304 0Z"/>
<path id="path6_fill" fill-rule="evenodd" d="M 2.736 1.29391L 2.23513 2.17043L 0 0.876522L 0.502957 0L 2.736 1.29391Z"/>
<path id="path7_fill" fill-rule="evenodd" d="M 2.17043 0.50087L 0.876522 2.73391L 0 2.23304L 1.29391 0L 2.17043 0.50087Z"/>
<path id="path8_fill" fill-rule="evenodd" d="M 0.876522 0L 2.17043 2.23304L 1.29391 2.73391L 0 0.50087L 0.876522 0Z"/>
<path id="path9_fill" fill-rule="evenodd" d="M 1.52348 9.30783C 1.81565 9.47478 2.02226 9.78783 2.02226 10.1635C 2.02226 10.7061 1.56522 11.1652 1.00174 11.1652C 0.457043 11.1652 0 10.7061 0 10.1635C 0 9.78783 0.206609 9.47478 0.50087 9.30783L 0.50087 0L 1.52348 0L 1.52348 9.30783Z"/>
<path id="path10_fill" fill-rule="evenodd" d="M 0 2.58783L 1.02261 2.58783L 1.02261 0L 0 0L 0 2.58783Z"/>
<path id="path11_fill" fill-rule="evenodd" d="M 2.73391 1.29391L 2.23304 2.17043L 0 0.876522L 0.50087 0L 2.73391 1.29391Z"/>
<path id="path12_fill" fill-rule="evenodd" d="M 2.23096 0L 2.73183 0.876522L 0.498783 2.17043L 0 1.29391L 2.23096 0Z"/>
<path id="path13_fill" fill-rule="evenodd" d="M 0 1.02261L 2.58783 1.02261L 2.58783 0L 0 0L 0 1.02261Z"/>
</defs>
</svg>
