<svg width="45" height="31" viewBox="0 0 45 31" version="1.1" xmlns="http://www.w3.org/2000/svg" xmlns:xlink="http://www.w3.org/1999/xlink">
<title>Page 1</title>
<desc>Created using Figma</desc>
<g id="Canvas" transform="translate(-685 -2764)">
<g id="Page 1">
<use xlink:href="#path0_fill" transform="translate(685 2764)" fill="#23DAF8"/>
</g>
</g>
<defs>
<path id="path0_fill" fill-rule="evenodd" d="M 7.88093 0L 0 7.87827L 22.5013 30.3743L 45 7.87827L 37.1217 0L 7.88093 0ZM 24.2322 1.42944L 35.0921 1.42944L 29.6648 6.86475L 24.2322 1.42944ZM 9.90784 1.42944L 20.7731 1.42944L 15.3378 6.86475L 9.90784 1.42944ZM 36.8257 1.72559L 42.2557 7.1609L 31.3931 7.1609L 36.8257 1.72559ZM 22.5013 1.72559L 27.9366 7.1609L 17.0687 7.1609L 22.5013 1.72559ZM 8.17697 1.72559L 13.6096 7.1609L 2.74432 7.1609L 8.17697 1.72559ZM 30.1796 8.59302L 42.2557 8.59302L 24.1389 26.7125L 30.1796 8.59302ZM 16.3326 8.59302L 28.67 8.59302L 22.5013 27.0992L 16.3326 8.59302ZM 2.74432 8.59302L 14.8231 8.59302L 20.8638 26.7125L 2.74432 8.59302Z"/>
</defs>
</svg>
