<svg width="43" height="44" viewBox="0 0 43 44" version="1.1" xmlns="http://www.w3.org/2000/svg" xmlns:xlink="http://www.w3.org/1999/xlink">
<title>Group 11</title>
<desc>Created using Figma</desc>
<g id="Canvas" transform="translate(-1390 -2903)">
<g id="Group 11">
<g id="Combined Shape">
<use xlink:href="#path0_fill" transform="translate(1404.73 2910.72)" fill="#23DAF8"/>
</g>
<g id="Fill 5">
<use xlink:href="#path1_fill" transform="translate(1390 2903.13)" fill="#23DAF8"/>
</g>
</g>
</g>
<defs>
<path id="path0_fill" fill-rule="evenodd" d="M 7.4364 2.58032C 10.8654 2.92383 13.519 5.82129 13.519 9.29883L 13.3375 9.48022L 12.3389 9.48022L 12.1575 9.29883C 12.1575 6.32471 9.7345 3.90088 6.75952 3.90088C 3.78455 3.90088 1.36157 6.32471 1.36157 9.29883C 1.36157 12.2754 3.78406 14.6995 6.75952 14.6995C 10.4839 14.6995 13.519 17.7336 13.519 21.459C 13.519 24.9355 10.8662 27.8313 7.4364 28.1772L 7.4364 30.5789L 7.255 30.7603L 6.26147 30.7603L 6.07996 30.5789L 6.07996 28.1772C 2.65088 27.8315 0 24.936 0 21.459L 0.181396 21.2773L 1.18018 21.2773L 1.36157 21.459C 1.36157 24.4348 3.78357 26.8567 6.75952 26.8567C 9.73547 26.8567 12.1575 24.4348 12.1575 21.459C 12.1575 18.4807 9.73584 16.0583 6.75952 16.0583C 3.03345 16.0583 0 13.0249 0 9.29883C 0 5.8208 2.65173 2.92383 6.07996 2.58032L 6.07996 0.181396L 6.26147 0L 7.255 0L 7.4364 0.181396L 7.4364 2.58032Z"/>
<path id="path1_fill" fill-rule="evenodd" d="M 27.7225 41.582L 15.2476 41.582L 13.8618 41.582L 8.31601 41.582L 8.31601 14.5523C 8.31601 14.1704 8.00633 13.8607 7.62439 13.8607L 2.98181 13.8607L 21.4825 1.52783L 39.9857 13.8607L 35.3431 13.8607C 34.9612 13.8607 34.6541 14.1704 34.6541 14.5523L 34.6541 41.582L 29.1083 41.582L 27.7225 41.582ZM 42.6592 13.9768L 21.867 0.116129C 21.6373 -0.0387097 21.3302 -0.0387097 21.1005 0.116129L 0.30826 13.9768C 0.0527766 14.1445 -0.0607718 14.4619 0.0321314 14.7535C 0.119873 15.0477 0.38826 15.2465 0.692777 15.2465L 6.9302 15.2465L 6.9302 42.2761C 6.9302 42.6581 7.23987 42.9677 7.62439 42.9677L 14.5508 42.9677L 28.4141 42.9677L 35.3431 42.9677C 35.7276 42.9677 36.0399 42.6581 36.0399 42.2761L 36.0399 15.2465L 42.2747 15.2465C 42.5818 15.2465 42.8476 15.0477 42.9379 14.7535C 43.0283 14.4619 42.9147 14.1445 42.6592 13.9768Z"/>
</defs>
</svg>
