<svg width="30" height="45" viewBox="0 0 30 45" version="1.1" xmlns="http://www.w3.org/2000/svg" xmlns:xlink="http://www.w3.org/1999/xlink">
<title>Group 3</title>
<desc>Created using Figma</desc>
<g id="Canvas" transform="translate(-1391 -2465)">
<g id="Group 3">
<g id="Fill 1">
<use xlink:href="#path0_fill" transform="translate(1391 2465)" fill="#23DAF8"/>
</g>
<g id="Fill 4">
<use xlink:href="#path1_fill" transform="translate(1400.82 2479.71)" fill="#23DAF8"/>
</g>
</g>
</g>
<defs>
<path id="path0_fill" fill-rule="evenodd" d="M 28.4347 42.6494L 1.42151 42.6494L 1.42151 22.0341C 1.42151 14.5879 7.48063 8.52881 14.9268 8.52881C 22.3756 8.52881 28.4347 14.5879 28.4347 22.0341L 28.4347 42.6494ZM 20.3214 1.41895L 14.9267 6.81365L 9.53467 1.41895L 20.3214 1.41895ZM 16.5521 7.19735L 22.5397 1.21235C 22.7435 1.00853 22.8044 0.701471 22.6959 0.436765C 22.5847 0.172059 22.3226 0 22.0368 0L 7.81941 0C 7.53353 0 7.27147 0.172059 7.16559 0.436765C 7.05441 0.701471 7.11265 1.00853 7.31647 1.21235L 13.3041 7.19735C 5.83412 8.01265 0 14.355 0 22.0341L 0 44.0709L 29.8562 44.0709L 29.8562 22.0341C 29.8562 14.355 24.0221 8.01265 16.5521 7.19735Z"/>
<path id="path1_fill" fill-rule="evenodd" d="M 5.10618 2.90912C 7.13912 2.90912 8.79353 4.56353 8.79353 6.59647L 10.215 6.59647C 10.215 4.02353 8.29588 1.91118 5.81824 1.55912L 5.81824 0L 4.39412 0L 4.39412 1.55912C 1.91912 1.91118 0 4.02353 0 6.59647C 0 9.41294 2.29235 11.7053 5.10618 11.7053C 7.13912 11.7053 8.79353 13.3597 8.79353 15.3926C 8.79353 17.4256 7.13912 19.08 5.10618 19.08C 3.07324 19.08 1.42147 17.4256 1.42147 15.3926L 0 15.3926C 0 17.9656 1.91912 20.0806 4.39412 20.43L 4.39412 21.9891L 5.81824 21.9891L 5.81824 20.43C 8.29588 20.0806 10.215 17.9656 10.215 15.3926C 10.215 12.5762 7.92265 10.2838 5.10618 10.2838C 3.07324 10.2838 1.42147 8.62941 1.42147 6.59647C 1.42147 4.56353 3.07324 2.90912 5.10618 2.90912Z"/>
</defs>
</svg>
