<svg width="37" height="44" viewBox="0 0 37 44" version="1.1" xmlns="http://www.w3.org/2000/svg" xmlns:xlink="http://www.w3.org/1999/xlink">
<title>Group</title>
<desc>Created using Figma</desc>
<g id="Canvas" transform="translate(-1157 -2466)">
<g id="Group">
<g id="Fill 1">
<use xlink:href="#path0_fill" transform="translate(1157 2466.13)" fill="#23DAF8"/>
</g>
<g id="Fill 4">
<use xlink:href="#path1_fill" transform="translate(1167.39 2476.52)" fill="#23DAF8"/>
</g>
</g>
</g>
<defs>
<path id="path0_fill" fill-rule="evenodd" d="M 29.7716 29.7806L 18.009 41.5432L 6.249 29.7806C -0.236158 23.2954 -0.236158 12.7432 6.249 6.258C 9.39223 3.11736 13.5677 1.38574 18.009 1.38574C 22.4529 1.38574 26.6309 3.11736 29.7716 6.258C 36.2567 12.7432 36.2567 23.2954 29.7716 29.7806ZM 30.7497 5.27742C 27.3484 1.87613 22.8245 0 18.009 0C 13.1987 0 8.67226 1.87613 5.26839 5.27742C -1.75613 12.3045 -1.75613 23.7342 5.26839 30.7613L 18.009 43.5019L 30.7497 30.7613C 37.7768 23.7342 37.7768 12.3045 30.7497 5.27742Z"/>
<path id="path1_fill" fill-rule="evenodd" d="M 7.62328 13.8606C 4.18328 13.8606 1.38586 11.0632 1.38586 7.62316C 1.38586 4.18316 4.18328 1.38574 7.62328 1.38574C 11.0633 1.38574 13.8607 4.18316 13.8607 7.62316C 13.8607 11.0632 11.0633 13.8606 7.62328 13.8606ZM 7.62323 0C 3.41935 0 0 3.41935 0 7.62323C 0 11.8271 3.41935 15.2465 7.62323 15.2465C 11.8271 15.2465 15.2465 11.8271 15.2465 7.62323C 15.2465 3.41935 11.8271 0 7.62323 0Z"/>
</defs>
</svg>
