<svg width="45" height="44" viewBox="0 0 45 44" version="1.1" xmlns="http://www.w3.org/2000/svg" xmlns:xlink="http://www.w3.org/1999/xlink">
<title>Group 10</title>
<desc>Created using Figma</desc>
<g id="Canvas" transform="translate(-1155 -2762)">
<g id="Group 10">
<g id="Fill 1">
<use xlink:href="#path0_fill" transform="translate(1164.56 2770.07)" fill="#23DAF8"/>
</g>
<g id="Fill 4">
<use xlink:href="#path1_fill" transform="translate(1156.84 2763.5)" fill="#FFFFFF"/>
</g>
<g id="Fill 6">
<use xlink:href="#path2_fill" transform="translate(1155.53 2762.19)" fill="#23DAF8"/>
</g>
<g id="Combined Shape">
<use xlink:href="#path3_fill" transform="translate(1162.76 2770.09)" fill="#23DAF8"/>
</g>
</g>
</g>
<defs>
<path id="path0_fill" fill-rule="evenodd" d="M 28.9181 11.3406C 28.6056 11.3406 28.3522 11.5939 28.3522 11.9085L 28.3522 34.0216L 23.8169 34.0216L 23.8169 17.5777C 23.8169 17.2652 23.5614 17.0119 23.2468 17.0119L 11.9062 17.0119C 11.5938 17.0119 11.3425 17.2652 11.3425 17.5777L 11.3425 34.0216L 6.80501 34.0216L 6.80501 11.9085C 6.80501 11.5939 6.55164 11.3406 6.23915 11.3406L 2.44067 11.3406L 17.5776 1.25L 32.7166 11.3406L 28.9181 11.3406ZM 12.4763 34.0238L 22.683 34.0238L 22.683 18.1458L 12.4763 18.1458L 12.4763 34.0238ZM 34.904 11.4355L 17.8921 0.0950147C 17.7021 -0.0316716 17.4529 -0.0316716 17.2629 0.0950147L 0.253171 11.4355C 0.0441391 11.5749 -0.0487641 11.8325 0.0251361 12.0732C 0.0990364 12.3118 0.318626 12.4744 0.567775 12.4744L 5.67112 12.4744L 5.67112 34.5896C 5.67112 34.9021 5.92449 35.1554 6.2391 35.1554L 11.9062 35.1554L 23.2467 35.1554L 28.918 35.1554C 29.2305 35.1554 29.4881 34.9021 29.4881 34.5896L 29.4881 12.4744L 34.5894 12.4744C 34.8406 12.4744 35.0581 12.3118 35.132 12.0732C 35.2059 11.8325 35.113 11.5749 34.904 11.4355Z"/>
<path id="path1_fill" fill-rule="evenodd" d="M 16.6592 25.2317L 13.5153 27.0475L 10.3883 25.2317L 6.75871 25.2317L 4.94076 22.0856L 1.81795 20.2698L 1.81795 16.6592L 0 13.5132L 1.81795 10.3883L 1.81795 6.7566L 4.94076 4.94076L 6.75871 1.81584L 10.3883 1.81584L 13.5153 0L 16.6592 1.81584L 20.2698 1.81584L 22.0856 4.94076L 25.2338 6.7566L 25.2338 10.3883L 27.0475 13.5132L 25.2338 16.6592L 25.2338 20.2698L 22.0856 22.0856L 20.2698 25.2317L 16.6592 25.2317Z"/>
<path id="path2_fill" fill-rule="evenodd" d="M 6.24984 23.3947L 8.06568 26.5408L 11.6974 26.5408L 14.8244 28.3566L 17.9683 26.5408L 21.5789 26.5408L 23.3947 23.3947L 26.5408 21.5789L 26.5408 17.9683L 28.3566 14.8223L 26.5408 11.6974L 26.5408 8.06568L 23.3947 6.24984L 21.5789 3.12492L 17.9683 3.12492L 14.8244 1.30908L 11.6974 3.12492L 8.06568 3.12492L 6.24984 6.24984L 3.12703 8.06568L 3.12703 11.6974L 1.30908 14.8223L 3.12703 17.9683L 3.12703 21.5789L 6.24984 23.3947ZM 1.98475 11.3806L 1.98475 7.41114L 5.42639 5.42639L 7.41114 1.98475L 11.3828 1.98475L 14.8244 0L 18.2639 1.98475L 22.2334 1.98475L 24.2182 5.42639L 27.6619 7.41114L 27.6619 11.3806L 29.6446 14.8223L 27.6619 18.2639L 27.6619 22.2334L 26.6463 22.8246L 25.635 23.4158L 24.2182 24.2182L 22.2334 27.6598L 20.1431 27.6598L 18.5384 27.6598L 18.2639 27.6598L 14.8244 29.6657L 11.444 27.7021L 9.86041 27.6598L 7.41114 27.6598L 5.42639 24.2182L 4.24399 23.5425L 3.2305 22.9513L 1.98475 22.2334L 1.98475 18.2639L 0 14.8223L 1.98475 11.3806Z"/>
<path id="path3_fill" fill-rule="evenodd" d="M 13.7731 0L 13.9271 0L 16.1104 2.18311L 16.1102 2.33716L 13.927 4.51831L 13.7731 4.51831L 12.9402 3.6853L 11.6412 4.98804L 12.4723 5.81909L 12.4723 5.97314L 10.2891 8.15625L 10.1351 8.15625L 8.39417 6.41528L 5.24854 9.56104C 6.15088 10.7212 6.06372 12.3816 5.01477 13.4307C 4.45935 13.9861 3.72192 14.2925 2.93823 14.2925C 2.15393 14.2925 1.41455 13.9856 0.859375 13.4304C 0.305664 12.8745 0 12.137 0 11.3521C 0 10.5691 0.305786 9.83154 0.859619 9.27563C 1.41455 8.72046 2.15393 8.41382 2.93823 8.41382C 3.58752 8.41382 4.2113 8.6355 4.73145 9.04175L 13.7731 0Z"/>
</defs>
</svg>
