<svg width="45" height="45" viewBox="0 0 45 45" version="1.1" xmlns="http://www.w3.org/2000/svg" xmlns:xlink="http://www.w3.org/1999/xlink">
<title>Fill 1</title>
<desc>Created using Figma</desc>
<g id="Canvas" transform="translate(-1390 -2761)">
<g id="Fill 1">
<use xlink:href="#path0_fill" transform="translate(1390 2761)" fill="#23DAF8"/>
</g>
</g>
<defs>
<path id="path0_fill" fill-rule="evenodd" d="M 37.0135 32.6622L 36.2891 32.6622L 36.2891 43.5487L 26.8216 43.5487C 26.4513 39.4838 23.0243 36.292 18.8702 36.292C 14.7108 36.292 11.2837 39.4838 10.9162 43.5487L 1.45129 43.5487L 1.45129 34.0811C 5.51346 33.7136 8.70805 30.2866 8.70805 26.1298C 8.70805 21.9703 5.51346 18.546 1.45129 18.1784L 1.45129 8.71088L 12.3378 8.71088L 12.3378 7.98385C 12.3378 4.38115 15.2648 1.45142 18.8702 1.45142C 22.4702 1.45142 25.3999 4.38115 25.3999 7.98385L 25.3999 8.71088L 36.2891 8.71088L 36.2891 19.5974L 37.0135 19.5974C 40.6162 19.5974 43.5486 22.5271 43.5486 26.1298C 43.5486 29.7325 40.6162 32.6622 37.0135 32.6622ZM 37.7432 18.1784L 37.7432 7.25946L 26.8216 7.25946C 26.4514 3.19459 23.0243 0 18.8703 0C 14.7108 0 11.2838 3.19459 10.9162 7.25946L 0 7.25946L 0 19.5973L 0.724324 19.5973C 4.32432 19.5973 7.25676 22.527 7.25676 26.1297C 7.25676 29.7324 4.32432 32.6622 0.724324 32.6622L 0 32.6622L 0 45L 12.3378 45L 12.3378 44.2757C 12.3378 40.673 15.2649 37.7432 18.8703 37.7432C 22.4703 37.7432 25.4 40.673 25.4 44.2757L 25.4 45L 37.7432 45L 37.7432 34.0811C 41.8027 33.7135 44.9973 30.2865 44.9973 26.1297C 44.9973 21.9703 41.8027 18.5459 37.7432 18.1784Z"/>
</defs>
</svg>
