<svg width="45" height="45" viewBox="0 0 45 45" version="1.1" xmlns="http://www.w3.org/2000/svg" xmlns:xlink="http://www.w3.org/1999/xlink">
<title>Fill 1</title>
<desc>Created using Figma</desc>
<g id="Canvas" transform="translate(-919 -2609)">
<g id="Fill 1">
<use xlink:href="#path0_fill" transform="translate(919.001 2609)" fill="#23DAF8"/>
</g>
</g>
<defs>
<path id="path0_fill" fill-rule="evenodd" d="M 43.5487 41.3702C 43.5487 42.5702 42.5703 43.5486 41.3703 43.5486L 3.62703 43.5486C 2.42703 43.5486 1.45135 42.5702 1.45135 41.3702L 1.45135 18.1432C 1.45135 16.9432 2.42703 15.9675 3.62703 15.9675L 18.146 15.9675L 18.146 18.1432L 17.0568 18.1432C 15.6568 18.1432 14.5162 19.2837 14.5162 20.6864C 14.5162 22.0837 15.6568 23.2243 17.0568 23.2243L 27.9432 23.2243C 29.3432 23.2243 30.4838 22.0837 30.4838 20.6864C 30.4838 19.2837 29.3432 18.1432 27.9432 18.1432L 26.8541 18.1432L 26.8541 15.9675L 41.3703 15.9675C 42.5703 15.9675 43.5487 16.9432 43.5487 18.1432L 43.5487 41.3702ZM 19.5973 7.25682L 25.4027 7.25682L 25.4027 1.45142L 19.5973 1.45142L 19.5973 7.25682ZM 19.5973 18.1431L 25.4027 18.1431L 25.4027 8.70801L 19.5973 8.70801L 19.5973 18.1431ZM 26.8541 19.5945L 27.9433 19.5945C 28.5433 19.5945 29.0325 20.0837 29.0325 20.6864C 29.0325 21.2837 28.5433 21.7729 27.9433 21.7729L 17.0568 21.7729C 16.4568 21.7729 15.9676 21.2837 15.9676 20.6864C 15.9676 20.0837 16.4568 19.5945 17.0568 19.5945L 18.146 19.5945L 26.8541 19.5945ZM 41.3703 14.5135L 26.8541 14.5135L 26.8541 0L 18.1459 0L 18.1459 14.5135L 3.62703 14.5135C 1.62703 14.5135 0 16.1432 0 18.1432L 0 41.3703C 0 43.3703 1.62703 45 3.62703 45L 41.3703 45C 43.373 45 45 43.3703 45 41.3703L 45 18.1432C 45 16.1432 43.373 14.5135 41.3703 14.5135Z"/>
</defs>
</svg>
