<svg width="46" height="45" viewBox="0 0 46 45" version="1.1" xmlns="http://www.w3.org/2000/svg" xmlns:xlink="http://www.w3.org/1999/xlink">
<title>Fill 1</title>
<desc>Created using Figma</desc>
<g id="Canvas" transform="translate(-685 -2465)">
<g id="Fill 1">
<use xlink:href="#path0_fill" transform="translate(685 2465)" fill="#23DAF8"/>
</g>
</g>
<defs>
<path id="path0_fill" fill-rule="evenodd" d="M 22.5947 42.8825C 10.1371 42.8825 1.45746 39.4247 1.45746 36.3225L 1.45746 26.5681C 2.34496 27.1679 2.93935 27.9686 3.56087 28.8045C 4.54066 30.1263 5.55301 31.4888 7.689 32.037C 9.90369 32.6015 11.0382 31.6896 12.0397 30.8835C 12.8838 30.1996 13.6111 29.616 15.0957 29.8006C 16.6238 29.9933 17.3837 30.7885 18.2631 31.7113C 19.2483 32.7454 20.3665 33.9151 22.5947 33.9151C 24.823 33.9151 25.9412 32.7454 26.9264 31.7113C 27.8058 30.7885 28.5657 29.9933 30.0938 29.8006C 31.5784 29.616 32.3057 30.2023 33.1498 30.8835C 34.1513 31.6896 35.2831 32.607 37.5005 32.0397C 39.6392 31.4942 40.6516 30.1263 41.6286 28.8045C 42.2501 27.9713 42.8445 27.1679 43.732 26.5681L 43.732 36.3225C 43.732 39.4247 35.0497 42.8825 22.5947 42.8825ZM 43.732 17.4163L 43.732 24.9017C 42.1552 25.6671 41.2541 26.8667 40.4589 27.9388C 39.5578 29.1547 38.7761 30.2077 37.1395 30.6257C 35.6305 31.0111 34.9764 30.4819 34.0672 29.7491C 33.1498 29.0108 32.0126 28.0962 29.9092 28.3513C 27.8709 28.6091 26.807 29.7219 25.8706 30.7044C 24.937 31.6842 24.1988 32.4577 22.5947 32.4577C 20.988 32.4577 20.2525 31.6842 19.3161 30.7044C 18.3798 29.7219 17.3186 28.6091 15.2803 28.3513C 13.1769 28.0908 12.0397 29.0108 11.1223 29.7463C 10.2131 30.4819 9.55629 31.0111 8.05268 30.623C 6.41609 30.205 5.63443 29.1547 4.73064 27.9361C 3.93542 26.8667 3.03434 25.6671 1.45746 24.9017L 1.45746 17.4163C 4.8962 20.7166 13.945 22.4726 22.5947 22.4726C 31.2418 22.4726 40.2933 20.7166 43.732 17.4163ZM 7.04576 10.1291L 7.04576 13.12L 8.50322 13.12L 8.50322 9.66223C 10.2918 9.13842 12.3735 8.70959 14.6995 8.4029L 14.6995 16.3986L 16.1569 16.3986L 16.1569 8.22377C 17.9401 8.0365 19.8535 7.93065 21.8647 7.90894L 21.8647 10.9351L 23.3248 10.9351L 23.3248 7.90894C 25.4255 7.93065 27.4231 8.04735 29.2768 8.2482L 29.2768 16.3986L 30.7343 16.3986L 30.7343 8.43547C 32.854 8.72316 34.7756 9.11942 36.4447 9.58624L 36.4447 13.12L 37.9022 13.12L 37.9022 10.0368C 41.5852 11.2853 43.732 12.9137 43.732 14.4553C 43.732 17.5575 35.0497 21.0153 22.5947 21.0153C 10.1371 21.0153 1.45746 17.5575 1.45746 14.4553C 1.45746 12.9517 3.51473 11.364 7.04576 10.1291ZM 37.9022 8.46523L 37.9022 2.18755L 36.4447 2.18755L 36.4447 8.04998C 34.686 7.58858 32.7563 7.21946 30.7343 6.95891L 30.7343 5.46617L 29.2768 5.46617L 29.2768 6.79335C 27.3254 6.58708 25.3197 6.47309 23.3248 6.45138L 23.3248 0L 21.8647 0L 21.8647 6.45138C 19.9512 6.47309 18.0297 6.57623 16.1569 6.7635L 16.1569 5.46617L 14.6995 5.46617L 14.6995 6.92906C 12.4929 7.20861 10.3949 7.60758 8.50323 8.11783L 8.50323 2.18755L 7.04576 2.18755L 7.04576 8.54665C 2.84979 9.89827 0 11.885 0 14.4552L 0 36.3226C 0 41.5309 11.6407 44.34 22.5948 44.34C 33.5488 44.34 45.1895 41.5309 45.1895 36.3226L 45.1895 14.4552C 45.1895 11.8334 42.2312 9.81956 37.9022 8.46523Z"/>
</defs>
</svg>
