<svg width="31" height="44" viewBox="0 0 31 44" version="1.1" xmlns="http://www.w3.org/2000/svg" xmlns:xlink="http://www.w3.org/1999/xlink">
<title>Group 7</title>
<desc>Created using Figma</desc>
<g id="Canvas" transform="translate(-1159 -2610)">
<g id="Group 7">
<g id="Fill 1">
<use xlink:href="#path0_fill" transform="translate(1159 2610.76)" fill="#23DAF8"/>
</g>
<g id="Fill 4">
<use xlink:href="#path1_fill" transform="translate(1165.53 2622.64)" fill="#23DAF8"/>
</g>
<g id="Fill 6">
<use xlink:href="#path2_fill" transform="translate(1165.53 2628.58)" fill="#23DAF8"/>
</g>
</g>
</g>
<defs>
<path id="path0_fill" fill-rule="evenodd" d="M 29.7003 35.6416L 24.949 35.6416L 24.949 34.3807C 26.734 33.2128 27.9175 31.1977 27.9175 28.9105C 27.9175 25.3072 24.9888 22.3763 21.3833 22.3763C 17.7822 22.3763 14.8491 25.3072 14.8491 28.9105C 14.8491 31.1977 16.0347 33.2128 17.8198 34.3807L 17.8198 35.6416L 1.18787 35.6416L 1.18787 1.18774L 23.7589 1.18774L 23.7589 6.5341C 23.7589 6.86148 24.0266 7.12691 24.3539 7.12691L 29.7003 7.12691L 29.7003 35.6416ZM 21.3832 39.7649L 19.0076 41.1142L 19.0076 34.9915C 19.7464 35.2812 20.5449 35.4449 21.3832 35.4449C 22.2238 35.4449 23.0223 35.2812 23.7589 34.9915L 23.7589 41.1142L 21.3832 39.7649ZM 21.3832 34.2569C 18.4347 34.2569 16.0369 31.8591 16.0369 28.9106C 16.0369 25.962 18.4347 23.5642 21.3832 23.5642C 24.3318 23.5642 26.7296 25.962 26.7296 28.9106C 26.7296 31.8591 24.3318 34.2569 21.3832 34.2569ZM 24.949 2.02832L 28.862 5.9391L 24.949 5.9391L 24.949 2.02832ZM 30.7134 6.11392L 24.7742 0.174747C 24.6702 0.0663594 24.5198 0 24.3539 0L 0.592811 0C 0.263226 0 0 0.265438 0 0.592811L 0 36.2367C 0 36.5641 0.263226 36.8295 0.592811 36.8295L 17.8197 36.8295L 17.8197 43.1535L 21.3832 41.1296L 24.9489 43.1535L 24.9489 36.8295L 30.2953 36.8295C 30.6227 36.8295 30.8881 36.5641 30.8881 36.2367L 30.8881 6.53419C 30.8881 6.37051 30.8218 6.22009 30.7134 6.11392Z"/>
<path id="path1_fill" fill-rule="evenodd" d="M 0 1.18783L 17.8219 1.18783L 17.8219 0L 0 0L 0 1.18783Z"/>
<path id="path2_fill" fill-rule="evenodd" d="M 0 1.18783L 11.8806 1.18783L 11.8806 0L 0 0L 0 1.18783Z"/>
</defs>
</svg>
