<svg width="45" height="45" viewBox="0 0 45 45" version="1.1" xmlns="http://www.w3.org/2000/svg" xmlns:xlink="http://www.w3.org/1999/xlink">
<title>Group 4</title>
<desc>Created using Figma</desc>
<g id="Canvas" transform="translate(-685 -2610)">
<g id="Group 4">
<g id="Fill 1">
<use xlink:href="#path0_fill" transform="translate(685 2610)" fill="#23DAF8"/>
</g>
<g id="Fill 2">
<use xlink:href="#path1_fill" transform="translate(692.109 2616.3)" fill="#23DAF8"/>
</g>
</g>
</g>
<defs>
<path id="path0_fill" fill-rule="evenodd" d="M 0 0L 0 44.0735L 8.53147 44.0735L 8.53147 40.5185L 35.5447 40.5185L 35.5447 44.0735L 44.0735 44.0735L 44.0735 0L 0 0ZM 1.42145 1.41895L 42.6547 1.41895L 42.6547 7.11012L 39.8091 7.11012L 39.8091 8.52895L 42.6547 8.52895L 42.6547 35.5422L 39.8091 35.5422L 39.8091 36.9636L 42.6547 36.9636L 42.6547 42.6522L 36.9662 42.6522L 36.9662 39.0972L 7.10998 39.0972L 7.10998 42.6522L 1.42145 42.6522L 1.42145 1.41895Z"/>
<path id="path1_fill" fill-rule="evenodd" d="M 15.6388 8.60303C 18.8285 8.96038 21.3247 11.6419 21.3247 14.9295C 21.3247 18.458 18.4526 21.3274 14.9268 21.3274C 11.3982 21.3274 8.52881 18.458 8.52881 14.9295C 8.52881 11.6419 11.0276 8.96038 14.2173 8.60303L 14.2173 11.3745L 15.6388 11.3745L 15.6388 8.60303ZM 28.3977 15.6388C 28.2309 18.8258 26.9577 21.7191 24.9539 23.9479L 22.9712 21.9653L 21.9653 22.9711L 23.948 24.9538C 21.7165 26.9603 18.8259 28.2308 15.6389 28.4003L 15.6389 25.5917L 14.2174 25.5917L 14.2174 28.4003C 11.0303 28.2308 8.13709 26.9603 5.90826 24.9538L 7.88826 22.9711L 6.88503 21.9653L 4.90238 23.9479C 2.89591 21.7191 1.62267 18.8258 1.45856 15.6388L 4.26444 15.6388L 4.26444 14.2173L 1.45856 14.2173C 1.62267 11.0303 2.89591 8.13703 4.90238 5.9082L 6.88503 7.89085L 7.88826 6.88761L 5.90826 4.90497C 8.13709 2.89585 11.0303 1.62526 14.2174 1.4585L 14.2174 7.14438C 10.2362 7.50438 7.10738 10.8556 7.10738 14.9294C 7.10738 19.2414 10.6174 22.7488 14.9268 22.7488C 19.2362 22.7488 22.7489 19.2414 22.7489 14.9294C 22.7489 10.8556 19.6174 7.50438 15.6389 7.14438L 15.6389 1.4585C 18.8259 1.62526 21.7165 2.89585 23.948 4.90497L 21.9653 6.88761L 22.9712 7.89085L 24.9539 5.9082C 26.9577 8.13703 28.2309 11.0303 28.3977 14.2173L 25.5918 14.2173L 25.5918 15.6388L 28.3977 15.6388ZM 14.9268 0C 6.69441 0 0 6.69706 0 14.9294C 0 23.1591 6.69441 29.8562 14.9268 29.8562C 23.1591 29.8562 29.8562 23.1591 29.8562 14.9294C 29.8562 6.69706 23.1591 0 14.9268 0Z"/>
</defs>
</svg>
