<svg width="43" height="44" viewBox="0 0 43 44" version="1.1" xmlns="http://www.w3.org/2000/svg" xmlns:xlink="http://www.w3.org/1999/xlink">
<title>Group 14</title>
<desc>Created using Figma</desc>
<g id="Canvas" transform="translate(-921 -2903)">
<g id="Group 14">
<g id="Fill 1">
<use xlink:href="#path0_fill" transform="translate(931.395 2910.16)" fill="#23DAF8"/>
</g>
<g id="Fill 3">
<use xlink:href="#path1_fill" transform="translate(921 2903.13)" fill="#23DAF8"/>
</g>
</g>
</g>
<defs>
<path id="path0_fill" fill-rule="evenodd" d="M 11.089 20.7922C 5.73935 20.7922 1.3858 16.4386 1.3858 11.089C 1.3858 5.73929 5.73935 1.38574 11.089 1.38574C 16.4387 1.38574 20.7923 5.73929 20.7923 11.089C 20.7923 16.4386 16.4387 20.7922 11.089 20.7922ZM 11.089 0C 4.97548 0 0 4.97548 0 11.089C 0 17.2026 4.97548 22.1781 11.089 22.1781C 17.2026 22.1781 22.1781 17.2026 22.1781 11.089C 22.1781 4.97548 17.2026 0 11.089 0Z"/>
<path id="path1_fill" fill-rule="evenodd" d="M 35.3446 34.7561C 34.9627 34.7561 34.6504 35.0683 34.6504 35.4529L 34.6504 40.7096L 27.7653 33.8245L 30.333 33.8245L 32.7588 29.618L 34.4724 28.6296L 40.6014 34.7561L 35.3446 34.7561ZM 25.1021 32.4388L 21.2672 34.653L 17.435 32.4388L 13.004 32.4388L 10.7898 28.6014L 6.95496 26.3898L 6.95496 21.9614L 4.74335 18.1265L 6.95496 14.2891L 6.95496 9.86332L 10.7898 7.64913L 13.0066 3.81429L 17.435 3.81429L 21.2672 1.6001L 25.1021 3.81429L 29.5304 3.81429L 31.7446 7.64913L 35.5795 9.86332L 35.5795 14.2891L 37.7937 18.1265L 35.5795 21.9614L 35.5795 26.3898L 31.7446 28.6014L 29.5304 32.4388L 25.1021 32.4388ZM 7.62335 34.7561L 2.36658 34.7561L 8.33819 28.7871L 9.77819 29.6181L 12.204 33.8245L 15.2001 33.8245L 8.31496 40.7097L 8.31496 35.4529C 8.31496 35.0684 8.00529 34.7561 7.62335 34.7561ZM 42.764 34.96L 35.7162 27.9123L 36.9653 27.1871L 36.9653 22.3329L 39.3911 18.1265L 36.9653 13.92L 36.9653 9.06323L 32.7588 6.63484L 30.333 2.42839L 25.4737 2.42839L 21.2672 0L 17.0608 2.42839L 12.2066 2.42839L 9.77817 6.63484L 5.56914 9.06323L 5.56914 13.92L 3.14075 18.1265L 5.56914 22.3329L 5.56914 27.1871L 7.09688 28.0671L 0.203976 34.96C 0.00526671 35.1587 -0.0540881 35.4555 0.0517183 35.7187C 0.160105 35.9768 0.413009 36.1419 0.691718 36.1419L 6.92914 36.1419L 6.92914 42.3819C 6.92914 42.6606 7.09946 42.9135 7.35752 43.0219C 7.44269 43.0581 7.53559 43.0735 7.62333 43.0735C 7.80398 43.0735 7.97946 43.0013 8.11365 42.8723L 17.1253 33.8581L 21.2672 36.2529L 25.4737 33.8245L 25.8066 33.8245L 34.8569 42.8723C 34.9859 43.0013 35.1666 43.0735 35.3446 43.0735C 35.4324 43.0735 35.5227 43.0581 35.6104 43.0219C 35.8685 42.9135 36.0388 42.6606 36.0388 42.3819L 36.0388 36.1419L 42.2762 36.1419C 42.5549 36.1419 42.8104 35.9768 42.9162 35.7187C 43.0246 35.4555 42.9627 35.1587 42.764 34.96Z"/>
</defs>
</svg>
