<svg width="43" height="44" viewBox="0 0 43 44" version="1.1" xmlns="http://www.w3.org/2000/svg" xmlns:xlink="http://www.w3.org/1999/xlink">
<title>Group 13</title>
<desc>Created using Figma</desc>
<g id="Canvas" transform="translate(-1156 -2902)">
<g id="Group 13">
<g id="Fill 1">
<use xlink:href="#path0_fill" transform="translate(1165.97 2924.07)" fill="#23DAF8"/>
</g>
<g id="Fill 3">
<use xlink:href="#path1_fill" transform="translate(1156 2902.13)" fill="#23DAF8"/>
</g>
</g>
</g>
<defs>
<path id="path0_fill" fill-rule="evenodd" d="M 4.44129 1.33935L 4.44129 0L 3.04 0L 3.04 1.33935C 1.30323 1.67226 0 3.21032 0 5.01161C 0 7.07355 1.68 8.75097 3.74194 8.75097C 5.03226 8.75097 6.08 9.79871 6.08 11.089C 6.08 12.3794 5.03226 13.4323 3.74194 13.4323C 2.45161 13.4323 1.40129 12.3794 1.40129 11.089L 1.40129 10.64L 0 10.64L 0 11.089C 0 12.8929 1.30323 14.431 3.04 14.7639L 3.04 16.1032L 4.44129 16.1032L 4.44129 14.7639C 6.17806 14.431 7.48129 12.8929 7.48129 11.089C 7.48129 9.0271 5.80129 7.34968 3.74194 7.34968C 2.45161 7.34968 1.40129 6.30194 1.40129 5.01161C 1.40129 3.72129 2.45161 2.67355 3.74194 2.67355C 5.03226 2.67355 6.08 3.72129 6.08 5.01161L 6.08 5.46323L 7.48129 5.46323L 7.48129 5.01161C 7.48129 3.21032 6.17806 1.67226 4.44129 1.33935Z"/>
<path id="path1_fill" fill-rule="evenodd" d="M 41.582 39.5045C 41.582 40.6503 40.6478 41.5845 39.502 41.5845L 3.46328 41.5845C 2.31748 41.5845 1.38586 40.6503 1.38586 39.5045L 1.38586 28.7019L 14.5523 15.5354L 21.4839 22.4645L 34.6504 9.298L 34.6504 21.4864L 36.0388 21.4864L 36.0388 6.93155L 21.4839 6.93155L 21.4839 8.31736L 33.6749 8.31736L 21.4839 20.5057L 14.5523 13.5741L 1.38586 26.7432L 1.38586 3.46574C 1.38586 2.31994 2.31748 1.38574 3.46328 1.38574L 39.502 1.38574C 40.6478 1.38574 41.582 2.31994 41.582 3.46574L 41.582 39.5045ZM 39.5019 0L 3.46323 0C 1.55355 0 0 1.55613 0 3.46581L 0 39.5045C 0 41.4142 1.55355 42.9703 3.46323 42.9703L 39.5019 42.9703C 41.4168 42.9703 42.9677 41.4142 42.9677 39.5045L 42.9677 3.46581C 42.9677 1.55613 41.4168 0 39.5019 0Z"/>
</defs>
</svg>
