<svg width="25" height="15" viewBox="0 0 25 15" version="1.1" xmlns="http://www.w3.org/2000/svg" xmlns:xlink="http://www.w3.org/1999/xlink">
<title>Menu</title>
<desc>Created using Figma</desc>
<g id="Canvas" transform="translate(-1664 -268)">
<g id="Menu">
<use xlink:href="#path0_fill" transform="translate(1664 268)" fill="#FFFFFF"/>
</g>
</g>
<defs>
<path id="path0_fill" fill-rule="evenodd" d="M 0 1.5C 0 0.67157 0.671631 0 1.5 0L 23.5 0C 24.3284 0 25 0.67157 25 1.5C 25 2.32843 24.3284 3 23.5 3L 1.5 3C 0.671631 3 0 2.32843 0 1.5ZM 0 7.5C 0 6.67157 0.671631 6 1.5 6L 18.5 6C 19.3284 6 20 6.67157 20 7.5C 20 8.32843 19.3284 9 18.5 9L 1.5 9C 0.671631 9 0 8.32843 0 7.5ZM 1.5 12C 0.671631 12 0 12.6716 0 13.5C 0 14.3284 0.671631 15 1.5 15L 23.5 15C 24.3284 15 25 14.3284 25 13.5C 25 12.6716 24.3284 12 23.5 12L 1.5 12Z"/>
</defs>
</svg>
